<mxfile host="65bd71144e">
    <diagram id="IDRi6lDVWXXq5iKLLZhE" name="개념">
        <mxGraphModel dx="749" dy="543" grid="1" gridSize="10" guides="1" tooltips="1" connect="1" arrows="1" fold="1" page="1" pageScale="1" pageWidth="850" pageHeight="1100" math="0" shadow="0">
            <root>
                <mxCell id="0"/>
                <mxCell id="1" parent="0"/>
                <mxCell id="UBKAtHIkFXXYrzudg4dq-3" value="&lt;h1 style=&quot;margin-top: 0px;&quot;&gt;데이터베이스 설계 단계&lt;span style=&quot;white-space: pre;&quot;&gt;&#x9;&lt;/span&gt;&lt;/h1&gt;&lt;div&gt;&lt;span style=&quot;font-size: 15px;&quot;&gt;1. 요구사항 분석 - 요구사항정의서&amp;nbsp;&lt;/span&gt;&lt;/div&gt;&lt;div&gt;&lt;span style=&quot;font-size: 15px;&quot;&gt;&lt;br&gt;&lt;/span&gt;&lt;/div&gt;&lt;div&gt;&lt;span style=&quot;font-size: 15px;&quot;&gt;2. 개념적 설계 - ERD&lt;/span&gt;&lt;/div&gt;&lt;div&gt;&lt;span style=&quot;font-size: 15px;&quot;&gt;&lt;br&gt;&lt;/span&gt;&lt;/div&gt;&lt;div&gt;&lt;span style=&quot;font-size: 15px;&quot;&gt;3. 논리적 설계 - 릴레이션 스키마&lt;/span&gt;&lt;/div&gt;&lt;div&gt;&lt;span style=&quot;font-size: 15px;&quot;&gt;&lt;br&gt;&lt;/span&gt;&lt;/div&gt;&lt;div&gt;&lt;span style=&quot;font-size: 15px;&quot;&gt;4. 물리적 설계 - 테이블 정의서, sql script 작성&lt;/span&gt;&lt;/div&gt;&lt;div&gt;&lt;span style=&quot;font-size: 15px;&quot;&gt;&lt;br&gt;&lt;/span&gt;&lt;/div&gt;&lt;div&gt;&lt;span style=&quot;font-size: 15px;&quot;&gt;5. 구현 - 테이블 작성&lt;/span&gt;&lt;/div&gt;" style="text;html=1;whiteSpace=wrap;overflow=hidden;rounded=0;" vertex="1" parent="1">
                    <mxGeometry width="350" height="250" as="geometry"/>
                </mxCell>
                <mxCell id="1MI80CkXuf6CGZz6DN3k-1" value="&lt;h1 style=&quot;margin-top: 0px;&quot;&gt;개념적 설계&lt;/h1&gt;&lt;div&gt;&lt;font style=&quot;font-size: 15px;&quot;&gt;ERD(Entity Relationship Diagram) 작성&lt;/font&gt;&lt;/div&gt;&lt;div&gt;&lt;font style=&quot;font-size: 15px;&quot;&gt;&lt;br&gt;&lt;/font&gt;&lt;/div&gt;&lt;div&gt;&lt;font style=&quot;font-size: 15px;&quot;&gt;데이터 베이스 설계의 이해도 높이기&lt;/font&gt;&lt;/div&gt;" style="text;html=1;whiteSpace=wrap;overflow=hidden;rounded=0;" vertex="1" parent="1">
                    <mxGeometry y="290" width="350" height="180" as="geometry"/>
                </mxCell>
                <mxCell id="1MI80CkXuf6CGZz6DN3k-3" value="Entity" style="whiteSpace=wrap;html=1;align=center;" vertex="1" parent="1">
                    <mxGeometry x="75" y="430" width="110" height="50" as="geometry"/>
                </mxCell>
                <mxCell id="1MI80CkXuf6CGZz6DN3k-4" value="&lt;font style=&quot;font-size: 15px;&quot;&gt;entity = 객체 = 테이블 = 릴레이션&lt;/font&gt;" style="text;html=1;align=center;verticalAlign=middle;whiteSpace=wrap;rounded=0;" vertex="1" parent="1">
                    <mxGeometry x="200" y="410" width="240" height="80" as="geometry"/>
                </mxCell>
                <mxCell id="1MI80CkXuf6CGZz6DN3k-5" value="Relationship" style="shape=rhombus;perimeter=rhombusPerimeter;whiteSpace=wrap;html=1;align=center;" vertex="1" parent="1">
                    <mxGeometry x="60" y="490" width="140" height="80" as="geometry"/>
                </mxCell>
                <mxCell id="1MI80CkXuf6CGZz6DN3k-6" value="&lt;font style=&quot;font-size: 15px;&quot;&gt;관계&lt;/font&gt;" style="text;html=1;align=center;verticalAlign=middle;whiteSpace=wrap;rounded=0;" vertex="1" parent="1">
                    <mxGeometry x="120" y="490" width="240" height="80" as="geometry"/>
                </mxCell>
                <mxCell id="1MI80CkXuf6CGZz6DN3k-7" value="Attribute" style="ellipse;whiteSpace=wrap;html=1;align=center;" vertex="1" parent="1">
                    <mxGeometry x="60" y="590" width="140" height="70" as="geometry"/>
                </mxCell>
                <mxCell id="1MI80CkXuf6CGZz6DN3k-8" value="&lt;font style=&quot;font-size: 15px;&quot;&gt;속성&lt;/font&gt;" style="text;html=1;align=center;verticalAlign=middle;whiteSpace=wrap;rounded=0;" vertex="1" parent="1">
                    <mxGeometry x="165" y="575" width="150" height="100" as="geometry"/>
                </mxCell>
                <mxCell id="1MI80CkXuf6CGZz6DN3k-9" value="Attribute" style="ellipse;whiteSpace=wrap;html=1;align=center;fontStyle=4;" vertex="1" parent="1">
                    <mxGeometry x="55" y="685" width="150" height="70" as="geometry"/>
                </mxCell>
                <mxCell id="1MI80CkXuf6CGZz6DN3k-10" value="&lt;font style=&quot;font-size: 15px;&quot;&gt;키(기본키) 속성&lt;/font&gt;" style="text;html=1;align=center;verticalAlign=middle;whiteSpace=wrap;rounded=0;" vertex="1" parent="1">
                    <mxGeometry x="185" y="670" width="180" height="100" as="geometry"/>
                </mxCell>
                <mxCell id="1MI80CkXuf6CGZz6DN3k-12" value="Attribute" style="ellipse;shape=doubleEllipse;margin=3;whiteSpace=wrap;html=1;align=center;" vertex="1" parent="1">
                    <mxGeometry x="55" y="780" width="150" height="80" as="geometry"/>
                </mxCell>
                <mxCell id="1MI80CkXuf6CGZz6DN3k-13" value="&lt;font style=&quot;font-size: 15px;&quot;&gt;multy value (취미 : 야구, 독서, 수영...)&lt;/font&gt;" style="text;html=1;align=center;verticalAlign=middle;whiteSpace=wrap;rounded=0;" vertex="1" parent="1">
                    <mxGeometry x="210" y="785" width="270" height="70" as="geometry"/>
                </mxCell>
                <mxCell id="1MI80CkXuf6CGZz6DN3k-14" value="Relationship" style="shape=rhombus;perimeter=rhombusPerimeter;whiteSpace=wrap;html=1;align=center;" vertex="1" parent="1">
                    <mxGeometry x="330" y="920" width="140" height="80" as="geometry"/>
                </mxCell>
                <mxCell id="1MI80CkXuf6CGZz6DN3k-15" value="User" style="whiteSpace=wrap;html=1;align=center;" vertex="1" parent="1">
                    <mxGeometry x="180" y="935" width="110" height="50" as="geometry"/>
                </mxCell>
                <mxCell id="1MI80CkXuf6CGZz6DN3k-16" value="Profile" style="whiteSpace=wrap;html=1;align=center;" vertex="1" parent="1">
                    <mxGeometry x="510" y="935" width="110" height="50" as="geometry"/>
                </mxCell>
                <mxCell id="1MI80CkXuf6CGZz6DN3k-19" value="" style="endArrow=none;html=1;rounded=0;entryX=0;entryY=0.5;entryDx=0;entryDy=0;exitX=1;exitY=0.5;exitDx=0;exitDy=0;" edge="1" parent="1" source="1MI80CkXuf6CGZz6DN3k-14" target="1MI80CkXuf6CGZz6DN3k-16">
                    <mxGeometry relative="1" as="geometry">
                        <mxPoint x="380" y="890" as="sourcePoint"/>
                        <mxPoint x="540" y="890" as="targetPoint"/>
                    </mxGeometry>
                </mxCell>
                <mxCell id="1MI80CkXuf6CGZz6DN3k-20" value="1" style="resizable=0;html=1;whiteSpace=wrap;align=right;verticalAlign=bottom;" connectable="0" vertex="1" parent="1MI80CkXuf6CGZz6DN3k-19">
                    <mxGeometry x="1" relative="1" as="geometry"/>
                </mxCell>
                <mxCell id="1MI80CkXuf6CGZz6DN3k-21" value="" style="endArrow=none;html=1;rounded=0;exitX=1;exitY=0.5;exitDx=0;exitDy=0;entryX=0;entryY=0.5;entryDx=0;entryDy=0;" edge="1" parent="1" source="1MI80CkXuf6CGZz6DN3k-15" target="1MI80CkXuf6CGZz6DN3k-14">
                    <mxGeometry relative="1" as="geometry">
                        <mxPoint x="380" y="890" as="sourcePoint"/>
                        <mxPoint x="540" y="890" as="targetPoint"/>
                    </mxGeometry>
                </mxCell>
                <mxCell id="1MI80CkXuf6CGZz6DN3k-22" value="1" style="resizable=0;html=1;whiteSpace=wrap;align=right;verticalAlign=bottom;" connectable="0" vertex="1" parent="1MI80CkXuf6CGZz6DN3k-21">
                    <mxGeometry x="1" relative="1" as="geometry"/>
                </mxCell>
                <mxCell id="1MI80CkXuf6CGZz6DN3k-23" value="Relationship" style="shape=rhombus;perimeter=rhombusPerimeter;whiteSpace=wrap;html=1;align=center;" vertex="1" parent="1">
                    <mxGeometry x="330" y="1060" width="140" height="80" as="geometry"/>
                </mxCell>
                <mxCell id="1MI80CkXuf6CGZz6DN3k-24" value="학과" style="whiteSpace=wrap;html=1;align=center;" vertex="1" parent="1">
                    <mxGeometry x="180" y="1075" width="110" height="50" as="geometry"/>
                </mxCell>
                <mxCell id="1MI80CkXuf6CGZz6DN3k-25" value="학생" style="whiteSpace=wrap;html=1;align=center;" vertex="1" parent="1">
                    <mxGeometry x="510" y="1075" width="110" height="50" as="geometry"/>
                </mxCell>
                <mxCell id="1MI80CkXuf6CGZz6DN3k-26" value="" style="endArrow=ERmany;html=1;rounded=0;entryX=0;entryY=0.5;entryDx=0;entryDy=0;exitX=1;exitY=0.5;exitDx=0;exitDy=0;endFill=0;" edge="1" source="1MI80CkXuf6CGZz6DN3k-23" target="1MI80CkXuf6CGZz6DN3k-25" parent="1">
                    <mxGeometry relative="1" as="geometry">
                        <mxPoint x="380" y="1030" as="sourcePoint"/>
                        <mxPoint x="540" y="1030" as="targetPoint"/>
                    </mxGeometry>
                </mxCell>
                <mxCell id="1MI80CkXuf6CGZz6DN3k-27" value="N" style="resizable=0;html=1;whiteSpace=wrap;align=right;verticalAlign=bottom;" connectable="0" vertex="1" parent="1MI80CkXuf6CGZz6DN3k-26">
                    <mxGeometry x="1" relative="1" as="geometry"/>
                </mxCell>
                <mxCell id="1MI80CkXuf6CGZz6DN3k-28" value="" style="endArrow=none;html=1;rounded=0;exitX=1;exitY=0.5;exitDx=0;exitDy=0;entryX=0;entryY=0.5;entryDx=0;entryDy=0;" edge="1" source="1MI80CkXuf6CGZz6DN3k-24" target="1MI80CkXuf6CGZz6DN3k-23" parent="1">
                    <mxGeometry relative="1" as="geometry">
                        <mxPoint x="380" y="1030" as="sourcePoint"/>
                        <mxPoint x="540" y="1030" as="targetPoint"/>
                    </mxGeometry>
                </mxCell>
                <mxCell id="1MI80CkXuf6CGZz6DN3k-29" value="1" style="resizable=0;html=1;whiteSpace=wrap;align=right;verticalAlign=bottom;" connectable="0" vertex="1" parent="1MI80CkXuf6CGZz6DN3k-28">
                    <mxGeometry x="1" relative="1" as="geometry">
                        <mxPoint x="-30" as="offset"/>
                    </mxGeometry>
                </mxCell>
                <mxCell id="1MI80CkXuf6CGZz6DN3k-30" value="1대1&amp;nbsp; 관계" style="text;html=1;align=center;verticalAlign=middle;whiteSpace=wrap;rounded=0;" vertex="1" parent="1">
                    <mxGeometry x="680" y="937.5" width="110" height="45" as="geometry"/>
                </mxCell>
                <mxCell id="1MI80CkXuf6CGZz6DN3k-31" value="수강" style="shape=rhombus;perimeter=rhombusPerimeter;whiteSpace=wrap;html=1;align=center;" vertex="1" parent="1">
                    <mxGeometry x="330" y="1190" width="140" height="80" as="geometry"/>
                </mxCell>
                <mxCell id="1MI80CkXuf6CGZz6DN3k-32" value="학생" style="whiteSpace=wrap;html=1;align=center;" vertex="1" parent="1">
                    <mxGeometry x="180" y="1205" width="110" height="50" as="geometry"/>
                </mxCell>
                <mxCell id="1MI80CkXuf6CGZz6DN3k-33" value="과목" style="whiteSpace=wrap;html=1;align=center;" vertex="1" parent="1">
                    <mxGeometry x="510" y="1205" width="110" height="50" as="geometry"/>
                </mxCell>
                <mxCell id="1MI80CkXuf6CGZz6DN3k-34" value="" style="endArrow=ERmany;html=1;rounded=0;entryX=0;entryY=0.5;entryDx=0;entryDy=0;exitX=1;exitY=0.5;exitDx=0;exitDy=0;endFill=0;" edge="1" source="1MI80CkXuf6CGZz6DN3k-31" target="1MI80CkXuf6CGZz6DN3k-33" parent="1">
                    <mxGeometry relative="1" as="geometry">
                        <mxPoint x="380" y="1160" as="sourcePoint"/>
                        <mxPoint x="540" y="1160" as="targetPoint"/>
                    </mxGeometry>
                </mxCell>
                <mxCell id="1MI80CkXuf6CGZz6DN3k-35" value="N" style="resizable=0;html=1;whiteSpace=wrap;align=right;verticalAlign=bottom;" connectable="0" vertex="1" parent="1MI80CkXuf6CGZz6DN3k-34">
                    <mxGeometry x="1" relative="1" as="geometry"/>
                </mxCell>
                <mxCell id="1MI80CkXuf6CGZz6DN3k-36" value="" style="endArrow=none;html=1;rounded=0;exitX=1;exitY=0.5;exitDx=0;exitDy=0;entryX=0;entryY=0.5;entryDx=0;entryDy=0;endFill=0;startArrow=ERmany;startFill=0;" edge="1" source="1MI80CkXuf6CGZz6DN3k-32" target="1MI80CkXuf6CGZz6DN3k-31" parent="1">
                    <mxGeometry relative="1" as="geometry">
                        <mxPoint x="380" y="1160" as="sourcePoint"/>
                        <mxPoint x="540" y="1160" as="targetPoint"/>
                    </mxGeometry>
                </mxCell>
                <mxCell id="1MI80CkXuf6CGZz6DN3k-37" value="M" style="resizable=0;html=1;whiteSpace=wrap;align=right;verticalAlign=bottom;" connectable="0" vertex="1" parent="1MI80CkXuf6CGZz6DN3k-36">
                    <mxGeometry x="1" relative="1" as="geometry">
                        <mxPoint x="-30" as="offset"/>
                    </mxGeometry>
                </mxCell>
                <mxCell id="1MI80CkXuf6CGZz6DN3k-38" value="N대1&amp;nbsp; 관계" style="text;html=1;align=center;verticalAlign=middle;whiteSpace=wrap;rounded=0;" vertex="1" parent="1">
                    <mxGeometry x="680" y="1077.5" width="110" height="45" as="geometry"/>
                </mxCell>
                <mxCell id="1MI80CkXuf6CGZz6DN3k-39" value="M대N&amp;nbsp; 관계" style="text;html=1;align=center;verticalAlign=middle;whiteSpace=wrap;rounded=0;" vertex="1" parent="1">
                    <mxGeometry x="680" y="1207.5" width="110" height="45" as="geometry"/>
                </mxCell>
                <mxCell id="aMjK-TdtVwPNMm-fFNKf-1" value="배송지" style="ellipse;whiteSpace=wrap;html=1;align=center;" vertex="1" parent="1">
                    <mxGeometry x="560" y="240" width="100" height="40" as="geometry"/>
                </mxCell>
                <mxCell id="aMjK-TdtVwPNMm-fFNKf-2" value="기본주소" style="ellipse;whiteSpace=wrap;html=1;align=center;" vertex="1" parent="1">
                    <mxGeometry x="490" y="150" width="100" height="40" as="geometry"/>
                </mxCell>
                <mxCell id="aMjK-TdtVwPNMm-fFNKf-3" value="상세주소" style="ellipse;whiteSpace=wrap;html=1;align=center;" vertex="1" parent="1">
                    <mxGeometry x="620" y="150" width="100" height="40" as="geometry"/>
                </mxCell>
                <mxCell id="aMjK-TdtVwPNMm-fFNKf-4" value="" style="endArrow=none;html=1;rounded=0;entryX=0.5;entryY=1;entryDx=0;entryDy=0;exitX=0.5;exitY=0;exitDx=0;exitDy=0;" edge="1" parent="1" source="aMjK-TdtVwPNMm-fFNKf-1" target="aMjK-TdtVwPNMm-fFNKf-2">
                    <mxGeometry relative="1" as="geometry">
                        <mxPoint x="480" y="340" as="sourcePoint"/>
                        <mxPoint x="640" y="340" as="targetPoint"/>
                    </mxGeometry>
                </mxCell>
                <mxCell id="aMjK-TdtVwPNMm-fFNKf-5" value="" style="endArrow=none;html=1;rounded=0;entryX=0.457;entryY=1.011;entryDx=0;entryDy=0;exitX=0.5;exitY=0;exitDx=0;exitDy=0;entryPerimeter=0;" edge="1" parent="1" source="aMjK-TdtVwPNMm-fFNKf-1" target="aMjK-TdtVwPNMm-fFNKf-3">
                    <mxGeometry relative="1" as="geometry">
                        <mxPoint x="480" y="340" as="sourcePoint"/>
                        <mxPoint x="640" y="340" as="targetPoint"/>
                    </mxGeometry>
                </mxCell>
                <mxCell id="aMjK-TdtVwPNMm-fFNKf-6" value="복합 속성" style="text;html=1;align=center;verticalAlign=middle;whiteSpace=wrap;rounded=0;" vertex="1" parent="1">
                    <mxGeometry x="545" y="100" width="130" height="40" as="geometry"/>
                </mxCell>
            </root>
        </mxGraphModel>
    </diagram>
    <diagram id="mxZX2axqV9S7BcV2yEtc" name="한빛ERD">
        <mxGraphModel dx="956" dy="1643" grid="1" gridSize="10" guides="1" tooltips="1" connect="1" arrows="1" fold="1" page="1" pageScale="1" pageWidth="850" pageHeight="1100" math="0" shadow="0">
            <root>
                <mxCell id="0"/>
                <mxCell id="1" parent="0"/>
                <mxCell id="rffJGNjceLyLHnW40Y8J-7" style="edgeStyle=none;html=1;exitX=0;exitY=0.5;exitDx=0;exitDy=0;entryX=1;entryY=0.5;entryDx=0;entryDy=0;endArrow=none;endFill=0;" edge="1" parent="1" source="rffJGNjceLyLHnW40Y8J-1" target="rffJGNjceLyLHnW40Y8J-2">
                    <mxGeometry relative="1" as="geometry"/>
                </mxCell>
                <mxCell id="rffJGNjceLyLHnW40Y8J-8" style="edgeStyle=none;html=1;exitX=0;exitY=0.5;exitDx=0;exitDy=0;entryX=1;entryY=0.5;entryDx=0;entryDy=0;endArrow=none;endFill=0;" edge="1" parent="1" source="rffJGNjceLyLHnW40Y8J-1" target="rffJGNjceLyLHnW40Y8J-3">
                    <mxGeometry relative="1" as="geometry"/>
                </mxCell>
                <mxCell id="rffJGNjceLyLHnW40Y8J-9" style="edgeStyle=none;html=1;exitX=0;exitY=0.5;exitDx=0;exitDy=0;entryX=1;entryY=0.5;entryDx=0;entryDy=0;endArrow=none;endFill=0;" edge="1" parent="1" source="rffJGNjceLyLHnW40Y8J-1" target="rffJGNjceLyLHnW40Y8J-4">
                    <mxGeometry relative="1" as="geometry"/>
                </mxCell>
                <mxCell id="rffJGNjceLyLHnW40Y8J-10" style="edgeStyle=none;html=1;entryX=1;entryY=0.5;entryDx=0;entryDy=0;endArrow=none;endFill=0;exitX=0;exitY=0.5;exitDx=0;exitDy=0;" edge="1" parent="1" source="rffJGNjceLyLHnW40Y8J-1" target="rffJGNjceLyLHnW40Y8J-5">
                    <mxGeometry relative="1" as="geometry">
                        <mxPoint x="150" y="110" as="sourcePoint"/>
                    </mxGeometry>
                </mxCell>
                <mxCell id="rffJGNjceLyLHnW40Y8J-11" style="edgeStyle=none;html=1;exitX=0;exitY=0.5;exitDx=0;exitDy=0;endArrow=none;endFill=0;entryX=1;entryY=0.5;entryDx=0;entryDy=0;" edge="1" parent="1" source="rffJGNjceLyLHnW40Y8J-1" target="rffJGNjceLyLHnW40Y8J-6">
                    <mxGeometry relative="1" as="geometry">
                        <mxPoint x="150" y="130" as="sourcePoint"/>
                        <mxPoint x="130" y="270" as="targetPoint"/>
                    </mxGeometry>
                </mxCell>
                <mxCell id="rffJGNjceLyLHnW40Y8J-1" value="&amp;nbsp;회원" style="whiteSpace=wrap;html=1;align=center;" vertex="1" parent="1">
                    <mxGeometry x="180" y="150" width="100" height="40" as="geometry"/>
                </mxCell>
                <mxCell id="rffJGNjceLyLHnW40Y8J-2" value="아이디" style="ellipse;whiteSpace=wrap;html=1;align=center;fontStyle=4;" vertex="1" parent="1">
                    <mxGeometry x="20" y="30" width="100" height="40" as="geometry"/>
                </mxCell>
                <mxCell id="rffJGNjceLyLHnW40Y8J-3" value="비밀번호" style="ellipse;whiteSpace=wrap;html=1;align=center;" vertex="1" parent="1">
                    <mxGeometry x="20" y="90" width="100" height="40" as="geometry"/>
                </mxCell>
                <mxCell id="rffJGNjceLyLHnW40Y8J-4" value="이름" style="ellipse;whiteSpace=wrap;html=1;align=center;" vertex="1" parent="1">
                    <mxGeometry x="20" y="150" width="100" height="40" as="geometry"/>
                </mxCell>
                <mxCell id="rffJGNjceLyLHnW40Y8J-5" value="나이" style="ellipse;whiteSpace=wrap;html=1;align=center;" vertex="1" parent="1">
                    <mxGeometry x="20" y="210" width="100" height="40" as="geometry"/>
                </mxCell>
                <mxCell id="rffJGNjceLyLHnW40Y8J-6" value="직업" style="ellipse;whiteSpace=wrap;html=1;align=center;" vertex="1" parent="1">
                    <mxGeometry x="20" y="270" width="100" height="40" as="geometry"/>
                </mxCell>
                <mxCell id="rffJGNjceLyLHnW40Y8J-18" style="edgeStyle=none;html=1;entryX=0;entryY=0.5;entryDx=0;entryDy=0;exitX=1;exitY=0.5;exitDx=0;exitDy=0;endArrow=none;endFill=0;" edge="1" parent="1" source="rffJGNjceLyLHnW40Y8J-12" target="rffJGNjceLyLHnW40Y8J-13">
                    <mxGeometry relative="1" as="geometry"/>
                </mxCell>
                <mxCell id="rffJGNjceLyLHnW40Y8J-19" style="edgeStyle=none;html=1;entryX=0;entryY=0.5;entryDx=0;entryDy=0;endArrow=none;endFill=0;exitX=1;exitY=0.5;exitDx=0;exitDy=0;" edge="1" parent="1" source="rffJGNjceLyLHnW40Y8J-12" target="rffJGNjceLyLHnW40Y8J-15">
                    <mxGeometry relative="1" as="geometry">
                        <mxPoint x="620" y="170" as="sourcePoint"/>
                    </mxGeometry>
                </mxCell>
                <mxCell id="rffJGNjceLyLHnW40Y8J-20" style="edgeStyle=none;html=1;exitX=1;exitY=0.5;exitDx=0;exitDy=0;entryX=0;entryY=0.5;entryDx=0;entryDy=0;endArrow=none;endFill=0;" edge="1" parent="1" source="rffJGNjceLyLHnW40Y8J-12" target="rffJGNjceLyLHnW40Y8J-16">
                    <mxGeometry relative="1" as="geometry"/>
                </mxCell>
                <mxCell id="rffJGNjceLyLHnW40Y8J-21" style="edgeStyle=none;html=1;entryX=0;entryY=0.5;entryDx=0;entryDy=0;endArrow=none;endFill=0;exitX=1;exitY=0.5;exitDx=0;exitDy=0;" edge="1" parent="1" source="rffJGNjceLyLHnW40Y8J-12" target="rffJGNjceLyLHnW40Y8J-17">
                    <mxGeometry relative="1" as="geometry"/>
                </mxCell>
                <mxCell id="rffJGNjceLyLHnW40Y8J-12" value="상품" style="whiteSpace=wrap;html=1;align=center;" vertex="1" parent="1">
                    <mxGeometry x="520" y="150" width="100" height="40" as="geometry"/>
                </mxCell>
                <mxCell id="rffJGNjceLyLHnW40Y8J-13" value="상품번호" style="ellipse;whiteSpace=wrap;html=1;align=center;fontStyle=4;" vertex="1" parent="1">
                    <mxGeometry x="680" y="50" width="100" height="40" as="geometry"/>
                </mxCell>
                <mxCell id="rffJGNjceLyLHnW40Y8J-14" value="상품번호" style="ellipse;whiteSpace=wrap;html=1;align=center;fontStyle=4;" vertex="1" parent="1">
                    <mxGeometry x="1100" y="40" width="100" height="40" as="geometry"/>
                </mxCell>
                <mxCell id="rffJGNjceLyLHnW40Y8J-15" value="상품명" style="ellipse;whiteSpace=wrap;html=1;align=center;" vertex="1" parent="1">
                    <mxGeometry x="680" y="100" width="100" height="40" as="geometry"/>
                </mxCell>
                <mxCell id="rffJGNjceLyLHnW40Y8J-16" value="재고량" style="ellipse;whiteSpace=wrap;html=1;align=center;" vertex="1" parent="1">
                    <mxGeometry x="680" y="200" width="100" height="40" as="geometry"/>
                </mxCell>
                <mxCell id="rffJGNjceLyLHnW40Y8J-17" value="단가" style="ellipse;whiteSpace=wrap;html=1;align=center;" vertex="1" parent="1">
                    <mxGeometry x="680" y="250" width="100" height="40" as="geometry"/>
                </mxCell>
                <mxCell id="rffJGNjceLyLHnW40Y8J-22" style="edgeStyle=none;html=1;entryX=0;entryY=0.5;entryDx=0;entryDy=0;exitX=1;exitY=0.5;exitDx=0;exitDy=0;endArrow=none;endFill=0;" edge="1" source="rffJGNjceLyLHnW40Y8J-26" target="rffJGNjceLyLHnW40Y8J-27" parent="1">
                    <mxGeometry relative="1" as="geometry"/>
                </mxCell>
                <mxCell id="rffJGNjceLyLHnW40Y8J-23" style="edgeStyle=none;html=1;entryX=0;entryY=0.5;entryDx=0;entryDy=0;endArrow=none;endFill=0;exitX=1;exitY=0.5;exitDx=0;exitDy=0;" edge="1" source="rffJGNjceLyLHnW40Y8J-26" target="rffJGNjceLyLHnW40Y8J-28" parent="1">
                    <mxGeometry relative="1" as="geometry">
                        <mxPoint x="630" y="520" as="sourcePoint"/>
                    </mxGeometry>
                </mxCell>
                <mxCell id="rffJGNjceLyLHnW40Y8J-24" style="edgeStyle=none;html=1;exitX=1;exitY=0.5;exitDx=0;exitDy=0;entryX=0;entryY=0.5;entryDx=0;entryDy=0;endArrow=none;endFill=0;" edge="1" source="rffJGNjceLyLHnW40Y8J-26" target="rffJGNjceLyLHnW40Y8J-29" parent="1">
                    <mxGeometry relative="1" as="geometry"/>
                </mxCell>
                <mxCell id="rffJGNjceLyLHnW40Y8J-25" style="edgeStyle=none;html=1;entryX=0;entryY=0.5;entryDx=0;entryDy=0;endArrow=none;endFill=0;exitX=1;exitY=0.5;exitDx=0;exitDy=0;" edge="1" source="rffJGNjceLyLHnW40Y8J-26" target="rffJGNjceLyLHnW40Y8J-30" parent="1">
                    <mxGeometry relative="1" as="geometry"/>
                </mxCell>
                <mxCell id="rffJGNjceLyLHnW40Y8J-26" value="제조업체" style="whiteSpace=wrap;html=1;align=center;" vertex="1" parent="1">
                    <mxGeometry x="520" y="530" width="100" height="40" as="geometry"/>
                </mxCell>
                <mxCell id="rffJGNjceLyLHnW40Y8J-27" value="업체코드" style="ellipse;whiteSpace=wrap;html=1;align=center;fontStyle=4;" vertex="1" parent="1">
                    <mxGeometry x="690" y="390" width="100" height="40" as="geometry"/>
                </mxCell>
                <mxCell id="rffJGNjceLyLHnW40Y8J-28" value="업체명" style="ellipse;whiteSpace=wrap;html=1;align=center;" vertex="1" parent="1">
                    <mxGeometry x="690" y="460" width="100" height="40" as="geometry"/>
                </mxCell>
                <mxCell id="rffJGNjceLyLHnW40Y8J-29" value="전화번호" style="ellipse;whiteSpace=wrap;html=1;align=center;" vertex="1" parent="1">
                    <mxGeometry x="690" y="530" width="100" height="40" as="geometry"/>
                </mxCell>
                <mxCell id="rffJGNjceLyLHnW40Y8J-30" value="위치" style="ellipse;whiteSpace=wrap;html=1;align=center;" vertex="1" parent="1">
                    <mxGeometry x="690" y="600" width="100" height="40" as="geometry"/>
                </mxCell>
                <mxCell id="rffJGNjceLyLHnW40Y8J-40" value="담당자" style="ellipse;whiteSpace=wrap;html=1;align=center;" vertex="1" parent="1">
                    <mxGeometry x="690" y="670" width="100" height="40" as="geometry"/>
                </mxCell>
                <mxCell id="rffJGNjceLyLHnW40Y8J-41" style="edgeStyle=none;html=1;exitX=1;exitY=0.5;exitDx=0;exitDy=0;endArrow=none;endFill=0;entryX=0;entryY=0.5;entryDx=0;entryDy=0;" edge="1" parent="1" source="rffJGNjceLyLHnW40Y8J-26" target="rffJGNjceLyLHnW40Y8J-40">
                    <mxGeometry relative="1" as="geometry">
                        <mxPoint x="690" y="690" as="targetPoint"/>
                    </mxGeometry>
                </mxCell>
                <mxCell id="rffJGNjceLyLHnW40Y8J-53" style="edgeStyle=none;html=1;exitX=0;exitY=0.5;exitDx=0;exitDy=0;entryX=1;entryY=0.5;entryDx=0;entryDy=0;endArrow=none;endFill=0;" edge="1" source="rffJGNjceLyLHnW40Y8J-63" target="rffJGNjceLyLHnW40Y8J-58" parent="1">
                    <mxGeometry relative="1" as="geometry"/>
                </mxCell>
                <mxCell id="rffJGNjceLyLHnW40Y8J-54" style="edgeStyle=none;html=1;exitX=0;exitY=0.5;exitDx=0;exitDy=0;entryX=1;entryY=0.5;entryDx=0;entryDy=0;endArrow=none;endFill=0;" edge="1" source="rffJGNjceLyLHnW40Y8J-63" target="rffJGNjceLyLHnW40Y8J-59" parent="1">
                    <mxGeometry relative="1" as="geometry"/>
                </mxCell>
                <mxCell id="rffJGNjceLyLHnW40Y8J-55" style="edgeStyle=none;html=1;exitX=0;exitY=0.5;exitDx=0;exitDy=0;entryX=1;entryY=0.5;entryDx=0;entryDy=0;endArrow=none;endFill=0;" edge="1" source="rffJGNjceLyLHnW40Y8J-63" target="rffJGNjceLyLHnW40Y8J-60" parent="1">
                    <mxGeometry relative="1" as="geometry"/>
                </mxCell>
                <mxCell id="rffJGNjceLyLHnW40Y8J-56" style="edgeStyle=none;html=1;entryX=1;entryY=0.5;entryDx=0;entryDy=0;endArrow=none;endFill=0;exitX=0;exitY=0.5;exitDx=0;exitDy=0;" edge="1" source="rffJGNjceLyLHnW40Y8J-63" target="rffJGNjceLyLHnW40Y8J-61" parent="1">
                    <mxGeometry relative="1" as="geometry">
                        <mxPoint x="150" y="460" as="sourcePoint"/>
                    </mxGeometry>
                </mxCell>
                <mxCell id="rffJGNjceLyLHnW40Y8J-58" value="글번호" style="ellipse;whiteSpace=wrap;html=1;align=center;fontStyle=4;" vertex="1" parent="1">
                    <mxGeometry x="20" y="400" width="100" height="40" as="geometry"/>
                </mxCell>
                <mxCell id="rffJGNjceLyLHnW40Y8J-59" value="제목" style="ellipse;whiteSpace=wrap;html=1;align=center;" vertex="1" parent="1">
                    <mxGeometry x="20" y="470" width="100" height="40" as="geometry"/>
                </mxCell>
                <mxCell id="rffJGNjceLyLHnW40Y8J-60" value="내용" style="ellipse;whiteSpace=wrap;html=1;align=center;" vertex="1" parent="1">
                    <mxGeometry x="20" y="540" width="100" height="40" as="geometry"/>
                </mxCell>
                <mxCell id="rffJGNjceLyLHnW40Y8J-61" value="작성일" style="ellipse;whiteSpace=wrap;html=1;align=center;" vertex="1" parent="1">
                    <mxGeometry x="20" y="610" width="100" height="40" as="geometry"/>
                </mxCell>
                <mxCell id="rffJGNjceLyLHnW40Y8J-63" value="게시글" style="whiteSpace=wrap;html=1;align=center;" vertex="1" parent="1">
                    <mxGeometry x="180" y="500" width="100" height="40" as="geometry"/>
                </mxCell>
                <mxCell id="c38M2Fcn1SnlkzypIWJz-1" value="" style="endArrow=none;html=1;rounded=0;exitX=1;exitY=0.5;exitDx=0;exitDy=0;entryX=0;entryY=0.5;entryDx=0;entryDy=0;" edge="1" parent="1" source="rffJGNjceLyLHnW40Y8J-1" target="rffJGNjceLyLHnW40Y8J-12">
                    <mxGeometry relative="1" as="geometry">
                        <mxPoint x="310" y="190" as="sourcePoint"/>
                        <mxPoint x="470" y="190" as="targetPoint"/>
                    </mxGeometry>
                </mxCell>
                <mxCell id="c38M2Fcn1SnlkzypIWJz-2" value="M" style="resizable=0;html=1;whiteSpace=wrap;align=left;verticalAlign=bottom;" connectable="0" vertex="1" parent="c38M2Fcn1SnlkzypIWJz-1">
                    <mxGeometry x="-1" relative="1" as="geometry"/>
                </mxCell>
                <mxCell id="c38M2Fcn1SnlkzypIWJz-3" value="N" style="resizable=0;html=1;whiteSpace=wrap;align=right;verticalAlign=bottom;" connectable="0" vertex="1" parent="c38M2Fcn1SnlkzypIWJz-1">
                    <mxGeometry x="1" relative="1" as="geometry"/>
                </mxCell>
                <mxCell id="rffJGNjceLyLHnW40Y8J-65" value="주문&lt;div&gt;&lt;br&gt;&lt;/div&gt;" style="shape=rhombus;perimeter=rhombusPerimeter;whiteSpace=wrap;html=1;align=center;" vertex="1" parent="1">
                    <mxGeometry x="340" y="140" width="120" height="60" as="geometry"/>
                </mxCell>
                <mxCell id="c38M2Fcn1SnlkzypIWJz-4" value="공급" style="shape=rhombus;perimeter=rhombusPerimeter;whiteSpace=wrap;html=1;align=center;" vertex="1" parent="1">
                    <mxGeometry x="510" y="310" width="120" height="60" as="geometry"/>
                </mxCell>
                <mxCell id="qAfwPiaXsEcC3dTymCzU-1" value="" style="shape=link;html=1;rounded=0;exitX=0.5;exitY=1;exitDx=0;exitDy=0;entryX=0.5;entryY=0;entryDx=0;entryDy=0;" edge="1" parent="1" source="rffJGNjceLyLHnW40Y8J-12" target="c38M2Fcn1SnlkzypIWJz-4">
                    <mxGeometry relative="1" as="geometry">
                        <mxPoint x="350" y="380" as="sourcePoint"/>
                        <mxPoint x="510" y="300" as="targetPoint"/>
                    </mxGeometry>
                </mxCell>
                <mxCell id="qAfwPiaXsEcC3dTymCzU-2" value="N" style="resizable=0;html=1;whiteSpace=wrap;align=left;verticalAlign=bottom;" connectable="0" vertex="1" parent="qAfwPiaXsEcC3dTymCzU-1">
                    <mxGeometry x="-1" relative="1" as="geometry">
                        <mxPoint x="3" y="17" as="offset"/>
                    </mxGeometry>
                </mxCell>
                <mxCell id="qAfwPiaXsEcC3dTymCzU-4" value="" style="endArrow=none;html=1;rounded=0;entryX=0.5;entryY=0;entryDx=0;entryDy=0;exitX=0.5;exitY=1;exitDx=0;exitDy=0;" edge="1" parent="1" source="c38M2Fcn1SnlkzypIWJz-4" target="rffJGNjceLyLHnW40Y8J-26">
                    <mxGeometry relative="1" as="geometry">
                        <mxPoint x="570" y="400" as="sourcePoint"/>
                        <mxPoint x="510" y="410" as="targetPoint"/>
                    </mxGeometry>
                </mxCell>
                <mxCell id="qAfwPiaXsEcC3dTymCzU-5" value="1" style="resizable=0;html=1;whiteSpace=wrap;align=right;verticalAlign=bottom;" connectable="0" vertex="1" parent="qAfwPiaXsEcC3dTymCzU-4">
                    <mxGeometry x="1" relative="1" as="geometry"/>
                </mxCell>
                <mxCell id="qAfwPiaXsEcC3dTymCzU-7" value="" style="endArrow=none;html=1;rounded=0;exitX=0.5;exitY=1;exitDx=0;exitDy=0;entryX=0.5;entryY=0;entryDx=0;entryDy=0;" edge="1" parent="1" source="rffJGNjceLyLHnW40Y8J-1" target="rffJGNjceLyLHnW40Y8J-63">
                    <mxGeometry relative="1" as="geometry">
                        <mxPoint x="350" y="380" as="sourcePoint"/>
                        <mxPoint x="510" y="380" as="targetPoint"/>
                    </mxGeometry>
                </mxCell>
                <mxCell id="qAfwPiaXsEcC3dTymCzU-8" value="1" style="resizable=0;html=1;whiteSpace=wrap;align=left;verticalAlign=bottom;" connectable="0" vertex="1" parent="qAfwPiaXsEcC3dTymCzU-7">
                    <mxGeometry x="-1" relative="1" as="geometry">
                        <mxPoint y="17" as="offset"/>
                    </mxGeometry>
                </mxCell>
                <mxCell id="qAfwPiaXsEcC3dTymCzU-9" value="N" style="resizable=0;html=1;whiteSpace=wrap;align=right;verticalAlign=bottom;" connectable="0" vertex="1" parent="qAfwPiaXsEcC3dTymCzU-7">
                    <mxGeometry x="1" relative="1" as="geometry"/>
                </mxCell>
                <mxCell id="qAfwPiaXsEcC3dTymCzU-6" value="작성" style="shape=rhombus;perimeter=rhombusPerimeter;whiteSpace=wrap;html=1;align=center;" vertex="1" parent="1">
                    <mxGeometry x="170" y="310" width="120" height="60" as="geometry"/>
                </mxCell>
                <mxCell id="qAfwPiaXsEcC3dTymCzU-10" value="공급일자" style="ellipse;whiteSpace=wrap;html=1;align=center;" vertex="1" parent="1">
                    <mxGeometry x="630" y="300" width="100" height="40" as="geometry"/>
                </mxCell>
                <mxCell id="qAfwPiaXsEcC3dTymCzU-11" value="공급량" style="ellipse;whiteSpace=wrap;html=1;align=center;" vertex="1" parent="1">
                    <mxGeometry x="630" y="340" width="100" height="40" as="geometry"/>
                </mxCell>
                <mxCell id="qAfwPiaXsEcC3dTymCzU-12" value="" style="endArrow=none;html=1;rounded=0;entryX=0;entryY=0.5;entryDx=0;entryDy=0;exitX=1;exitY=0;exitDx=0;exitDy=0;" edge="1" parent="1" source="c38M2Fcn1SnlkzypIWJz-4" target="qAfwPiaXsEcC3dTymCzU-10">
                    <mxGeometry relative="1" as="geometry">
                        <mxPoint x="350" y="350" as="sourcePoint"/>
                        <mxPoint x="510" y="350" as="targetPoint"/>
                    </mxGeometry>
                </mxCell>
                <mxCell id="qAfwPiaXsEcC3dTymCzU-13" value="" style="endArrow=none;html=1;rounded=0;entryX=0;entryY=0.5;entryDx=0;entryDy=0;exitX=1;exitY=1;exitDx=0;exitDy=0;" edge="1" parent="1" source="c38M2Fcn1SnlkzypIWJz-4" target="qAfwPiaXsEcC3dTymCzU-11">
                    <mxGeometry relative="1" as="geometry">
                        <mxPoint x="600" y="360" as="sourcePoint"/>
                        <mxPoint x="510" y="350" as="targetPoint"/>
                    </mxGeometry>
                </mxCell>
                <mxCell id="qAfwPiaXsEcC3dTymCzU-14" value="주문수량" style="ellipse;whiteSpace=wrap;html=1;align=center;" vertex="1" parent="1">
                    <mxGeometry x="290" y="40" width="100" height="40" as="geometry"/>
                </mxCell>
                <mxCell id="qAfwPiaXsEcC3dTymCzU-16" value="주문일자" style="ellipse;whiteSpace=wrap;html=1;align=center;" vertex="1" parent="1">
                    <mxGeometry x="470" y="90" width="100" height="40" as="geometry"/>
                </mxCell>
                <mxCell id="qAfwPiaXsEcC3dTymCzU-17" value="배송지" style="ellipse;whiteSpace=wrap;html=1;align=center;" vertex="1" parent="1">
                    <mxGeometry x="410" width="100" height="40" as="geometry"/>
                </mxCell>
                <mxCell id="qAfwPiaXsEcC3dTymCzU-19" style="edgeStyle=none;html=1;endArrow=none;endFill=0;exitX=1;exitY=0.5;exitDx=0;exitDy=0;" edge="1" parent="1" source="qAfwPiaXsEcC3dTymCzU-18">
                    <mxGeometry relative="1" as="geometry">
                        <mxPoint x="400" y="140" as="targetPoint"/>
                    </mxGeometry>
                </mxCell>
                <mxCell id="qAfwPiaXsEcC3dTymCzU-18" value="주문번호" style="ellipse;whiteSpace=wrap;html=1;align=center;fontStyle=4;" vertex="1" parent="1">
                    <mxGeometry x="230" y="90" width="100" height="40" as="geometry"/>
                </mxCell>
                <mxCell id="qAfwPiaXsEcC3dTymCzU-20" value="" style="endArrow=none;html=1;rounded=0;exitX=0.5;exitY=1;exitDx=0;exitDy=0;entryX=0.5;entryY=0;entryDx=0;entryDy=0;" edge="1" parent="1" source="qAfwPiaXsEcC3dTymCzU-14" target="rffJGNjceLyLHnW40Y8J-65">
                    <mxGeometry relative="1" as="geometry">
                        <mxPoint x="350" y="280" as="sourcePoint"/>
                        <mxPoint x="510" y="280" as="targetPoint"/>
                    </mxGeometry>
                </mxCell>
                <mxCell id="qAfwPiaXsEcC3dTymCzU-21" value="" style="endArrow=none;html=1;rounded=0;exitX=0.5;exitY=1;exitDx=0;exitDy=0;entryX=0.5;entryY=0;entryDx=0;entryDy=0;" edge="1" parent="1" source="qAfwPiaXsEcC3dTymCzU-17" target="rffJGNjceLyLHnW40Y8J-65">
                    <mxGeometry relative="1" as="geometry">
                        <mxPoint x="350" y="280" as="sourcePoint"/>
                        <mxPoint x="510" y="280" as="targetPoint"/>
                    </mxGeometry>
                </mxCell>
                <mxCell id="qAfwPiaXsEcC3dTymCzU-22" value="" style="endArrow=none;html=1;rounded=0;exitX=0;exitY=0.5;exitDx=0;exitDy=0;entryX=0.5;entryY=0;entryDx=0;entryDy=0;" edge="1" parent="1" source="qAfwPiaXsEcC3dTymCzU-16" target="rffJGNjceLyLHnW40Y8J-65">
                    <mxGeometry relative="1" as="geometry">
                        <mxPoint x="350" y="280" as="sourcePoint"/>
                        <mxPoint x="510" y="280" as="targetPoint"/>
                    </mxGeometry>
                </mxCell>
                <mxCell id="8Pe6LuUEJjx_adNiCJ70-1" value="기본주소" style="ellipse;whiteSpace=wrap;html=1;align=center;rotation=0;" vertex="1" parent="1">
                    <mxGeometry x="340" y="-80" width="100" height="40" as="geometry"/>
                </mxCell>
                <mxCell id="8Pe6LuUEJjx_adNiCJ70-2" value="상세주소" style="ellipse;whiteSpace=wrap;html=1;align=center;rotation=0;" vertex="1" parent="1">
                    <mxGeometry x="490" y="-80" width="100" height="40" as="geometry"/>
                </mxCell>
                <mxCell id="8Pe6LuUEJjx_adNiCJ70-3" value="" style="endArrow=none;html=1;rounded=0;exitX=0.5;exitY=0;exitDx=0;exitDy=0;entryX=1;entryY=1;entryDx=0;entryDy=0;" edge="1" parent="1" source="qAfwPiaXsEcC3dTymCzU-17" target="8Pe6LuUEJjx_adNiCJ70-1">
                    <mxGeometry relative="1" as="geometry">
                        <mxPoint x="350" y="140" as="sourcePoint"/>
                        <mxPoint x="510" y="140" as="targetPoint"/>
                    </mxGeometry>
                </mxCell>
                <mxCell id="8Pe6LuUEJjx_adNiCJ70-4" value="" style="endArrow=none;html=1;rounded=0;entryX=0;entryY=1;entryDx=0;entryDy=0;exitX=0.5;exitY=0;exitDx=0;exitDy=0;" edge="1" parent="1" source="qAfwPiaXsEcC3dTymCzU-17" target="8Pe6LuUEJjx_adNiCJ70-2">
                    <mxGeometry relative="1" as="geometry">
                        <mxPoint x="350" y="140" as="sourcePoint"/>
                        <mxPoint x="510" y="140" as="targetPoint"/>
                    </mxGeometry>
                </mxCell>
                <mxCell id="wJqet0WCn1WXJxq1SBsI-1" value="제품색상" style="ellipse;shape=doubleEllipse;margin=3;whiteSpace=wrap;html=1;align=center;" vertex="1" parent="1">
                    <mxGeometry x="680" y="150" width="100" height="40" as="geometry"/>
                </mxCell>
                <mxCell id="wJqet0WCn1WXJxq1SBsI-2" value="" style="endArrow=none;html=1;rounded=0;entryX=0;entryY=0.5;entryDx=0;entryDy=0;exitX=1;exitY=0.5;exitDx=0;exitDy=0;" edge="1" parent="1" source="rffJGNjceLyLHnW40Y8J-12" target="wJqet0WCn1WXJxq1SBsI-1">
                    <mxGeometry relative="1" as="geometry">
                        <mxPoint x="350" y="210" as="sourcePoint"/>
                        <mxPoint x="510" y="210" as="targetPoint"/>
                    </mxGeometry>
                </mxCell>
            </root>
        </mxGraphModel>
    </diagram>
    <diagram id="AXLOjJFtCzFC8uubAxW5" name="한빛릴레리션">
        <mxGraphModel dx="956" dy="543" grid="1" gridSize="10" guides="1" tooltips="1" connect="1" arrows="1" fold="1" page="1" pageScale="1" pageWidth="850" pageHeight="1100" math="0" shadow="0">
            <root>
                <mxCell id="0"/>
                <mxCell id="1" parent="0"/>
                <mxCell id="r0MSx6D7fxtYi2YmD08k-1" value="&lt;h1 style=&quot;margin-top: 0px;&quot;&gt;릴레이션 스키마(관계데이터모델)&lt;/h1&gt;&lt;div&gt;1. 모든 개체는 릴레이션으로 변환한다.&lt;/div&gt;&lt;div&gt;2. 다대다 관계는 릴레이션으로 변환한다.&lt;/div&gt;&lt;div&gt;3. 1대 다 관계는 외래키로 표현한다&lt;/div&gt;&lt;div&gt;4. 일대일 관계는 외래키로 표현한다&lt;/div&gt;&lt;div&gt;5. 다중값 속성은 릴레이션으로 변환한다.&lt;/div&gt;" style="text;html=1;whiteSpace=wrap;overflow=hidden;rounded=0;" vertex="1" parent="1">
                    <mxGeometry width="370" height="160" as="geometry"/>
                </mxCell>
                <mxCell id="r0MSx6D7fxtYi2YmD08k-15" value="회원" style="shape=table;startSize=30;container=1;collapsible=1;childLayout=tableLayout;fixedRows=1;rowLines=0;fontStyle=1;align=center;resizeLast=1;html=1;" vertex="1" parent="1">
                    <mxGeometry x="260" y="140" width="105" height="180" as="geometry"/>
                </mxCell>
                <mxCell id="r0MSx6D7fxtYi2YmD08k-16" value="" style="shape=tableRow;horizontal=0;startSize=0;swimlaneHead=0;swimlaneBody=0;fillColor=none;collapsible=0;dropTarget=0;points=[[0,0.5],[1,0.5]];portConstraint=eastwest;top=0;left=0;right=0;bottom=1;" vertex="1" parent="r0MSx6D7fxtYi2YmD08k-15">
                    <mxGeometry y="30" width="105" height="30" as="geometry"/>
                </mxCell>
                <mxCell id="r0MSx6D7fxtYi2YmD08k-17" value="PK" style="shape=partialRectangle;connectable=0;fillColor=none;top=0;left=0;bottom=0;right=0;fontStyle=1;overflow=hidden;whiteSpace=wrap;html=1;" vertex="1" parent="r0MSx6D7fxtYi2YmD08k-16">
                    <mxGeometry width="30" height="30" as="geometry">
                        <mxRectangle width="30" height="30" as="alternateBounds"/>
                    </mxGeometry>
                </mxCell>
                <mxCell id="r0MSx6D7fxtYi2YmD08k-18" value="아이디&lt;span style=&quot;white-space: pre;&quot;&gt;&#x9;&lt;/span&gt;" style="shape=partialRectangle;connectable=0;fillColor=none;top=0;left=0;bottom=0;right=0;align=left;spacingLeft=6;fontStyle=5;overflow=hidden;whiteSpace=wrap;html=1;" vertex="1" parent="r0MSx6D7fxtYi2YmD08k-16">
                    <mxGeometry x="30" width="75" height="30" as="geometry">
                        <mxRectangle width="75" height="30" as="alternateBounds"/>
                    </mxGeometry>
                </mxCell>
                <mxCell id="r0MSx6D7fxtYi2YmD08k-19" value="" style="shape=tableRow;horizontal=0;startSize=0;swimlaneHead=0;swimlaneBody=0;fillColor=none;collapsible=0;dropTarget=0;points=[[0,0.5],[1,0.5]];portConstraint=eastwest;top=0;left=0;right=0;bottom=0;" vertex="1" parent="r0MSx6D7fxtYi2YmD08k-15">
                    <mxGeometry y="60" width="105" height="30" as="geometry"/>
                </mxCell>
                <mxCell id="r0MSx6D7fxtYi2YmD08k-20" value="" style="shape=partialRectangle;connectable=0;fillColor=none;top=0;left=0;bottom=0;right=0;editable=1;overflow=hidden;whiteSpace=wrap;html=1;" vertex="1" parent="r0MSx6D7fxtYi2YmD08k-19">
                    <mxGeometry width="30" height="30" as="geometry">
                        <mxRectangle width="30" height="30" as="alternateBounds"/>
                    </mxGeometry>
                </mxCell>
                <mxCell id="r0MSx6D7fxtYi2YmD08k-21" value="비밀번호" style="shape=partialRectangle;connectable=0;fillColor=none;top=0;left=0;bottom=0;right=0;align=left;spacingLeft=6;overflow=hidden;whiteSpace=wrap;html=1;" vertex="1" parent="r0MSx6D7fxtYi2YmD08k-19">
                    <mxGeometry x="30" width="75" height="30" as="geometry">
                        <mxRectangle width="75" height="30" as="alternateBounds"/>
                    </mxGeometry>
                </mxCell>
                <mxCell id="r0MSx6D7fxtYi2YmD08k-22" value="" style="shape=tableRow;horizontal=0;startSize=0;swimlaneHead=0;swimlaneBody=0;fillColor=none;collapsible=0;dropTarget=0;points=[[0,0.5],[1,0.5]];portConstraint=eastwest;top=0;left=0;right=0;bottom=0;" vertex="1" parent="r0MSx6D7fxtYi2YmD08k-15">
                    <mxGeometry y="90" width="105" height="30" as="geometry"/>
                </mxCell>
                <mxCell id="r0MSx6D7fxtYi2YmD08k-23" value="" style="shape=partialRectangle;connectable=0;fillColor=none;top=0;left=0;bottom=0;right=0;editable=1;overflow=hidden;whiteSpace=wrap;html=1;" vertex="1" parent="r0MSx6D7fxtYi2YmD08k-22">
                    <mxGeometry width="30" height="30" as="geometry">
                        <mxRectangle width="30" height="30" as="alternateBounds"/>
                    </mxGeometry>
                </mxCell>
                <mxCell id="r0MSx6D7fxtYi2YmD08k-24" value="이름" style="shape=partialRectangle;connectable=0;fillColor=none;top=0;left=0;bottom=0;right=0;align=left;spacingLeft=6;overflow=hidden;whiteSpace=wrap;html=1;" vertex="1" parent="r0MSx6D7fxtYi2YmD08k-22">
                    <mxGeometry x="30" width="75" height="30" as="geometry">
                        <mxRectangle width="75" height="30" as="alternateBounds"/>
                    </mxGeometry>
                </mxCell>
                <mxCell id="r0MSx6D7fxtYi2YmD08k-25" value="" style="shape=tableRow;horizontal=0;startSize=0;swimlaneHead=0;swimlaneBody=0;fillColor=none;collapsible=0;dropTarget=0;points=[[0,0.5],[1,0.5]];portConstraint=eastwest;top=0;left=0;right=0;bottom=0;" vertex="1" parent="r0MSx6D7fxtYi2YmD08k-15">
                    <mxGeometry y="120" width="105" height="30" as="geometry"/>
                </mxCell>
                <mxCell id="r0MSx6D7fxtYi2YmD08k-26" value="" style="shape=partialRectangle;connectable=0;fillColor=none;top=0;left=0;bottom=0;right=0;editable=1;overflow=hidden;whiteSpace=wrap;html=1;" vertex="1" parent="r0MSx6D7fxtYi2YmD08k-25">
                    <mxGeometry width="30" height="30" as="geometry">
                        <mxRectangle width="30" height="30" as="alternateBounds"/>
                    </mxGeometry>
                </mxCell>
                <mxCell id="r0MSx6D7fxtYi2YmD08k-27" value="나이" style="shape=partialRectangle;connectable=0;fillColor=none;top=0;left=0;bottom=0;right=0;align=left;spacingLeft=6;overflow=hidden;whiteSpace=wrap;html=1;" vertex="1" parent="r0MSx6D7fxtYi2YmD08k-25">
                    <mxGeometry x="30" width="75" height="30" as="geometry">
                        <mxRectangle width="75" height="30" as="alternateBounds"/>
                    </mxGeometry>
                </mxCell>
                <mxCell id="bwYCHJLNzinmX0HIPUTe-1" value="" style="shape=tableRow;horizontal=0;startSize=0;swimlaneHead=0;swimlaneBody=0;fillColor=none;collapsible=0;dropTarget=0;points=[[0,0.5],[1,0.5]];portConstraint=eastwest;top=0;left=0;right=0;bottom=0;" vertex="1" parent="r0MSx6D7fxtYi2YmD08k-15">
                    <mxGeometry y="150" width="105" height="30" as="geometry"/>
                </mxCell>
                <mxCell id="bwYCHJLNzinmX0HIPUTe-2" value="" style="shape=partialRectangle;connectable=0;fillColor=none;top=0;left=0;bottom=0;right=0;editable=1;overflow=hidden;whiteSpace=wrap;html=1;" vertex="1" parent="bwYCHJLNzinmX0HIPUTe-1">
                    <mxGeometry width="30" height="30" as="geometry">
                        <mxRectangle width="30" height="30" as="alternateBounds"/>
                    </mxGeometry>
                </mxCell>
                <mxCell id="bwYCHJLNzinmX0HIPUTe-3" value="직업" style="shape=partialRectangle;connectable=0;fillColor=none;top=0;left=0;bottom=0;right=0;align=left;spacingLeft=6;overflow=hidden;whiteSpace=wrap;html=1;" vertex="1" parent="bwYCHJLNzinmX0HIPUTe-1">
                    <mxGeometry x="30" width="75" height="30" as="geometry">
                        <mxRectangle width="75" height="30" as="alternateBounds"/>
                    </mxGeometry>
                </mxCell>
                <mxCell id="bwYCHJLNzinmX0HIPUTe-17" value="상품" style="shape=table;startSize=30;container=1;collapsible=1;childLayout=tableLayout;fixedRows=1;rowLines=0;fontStyle=1;align=center;resizeLast=1;html=1;" vertex="1" parent="1">
                    <mxGeometry x="630" y="140" width="105" height="240" as="geometry"/>
                </mxCell>
                <mxCell id="bwYCHJLNzinmX0HIPUTe-18" value="" style="shape=tableRow;horizontal=0;startSize=0;swimlaneHead=0;swimlaneBody=0;fillColor=none;collapsible=0;dropTarget=0;points=[[0,0.5],[1,0.5]];portConstraint=eastwest;top=0;left=0;right=0;bottom=1;" vertex="1" parent="bwYCHJLNzinmX0HIPUTe-17">
                    <mxGeometry y="30" width="105" height="30" as="geometry"/>
                </mxCell>
                <mxCell id="bwYCHJLNzinmX0HIPUTe-19" value="PK" style="shape=partialRectangle;connectable=0;fillColor=none;top=0;left=0;bottom=0;right=0;fontStyle=1;overflow=hidden;whiteSpace=wrap;html=1;" vertex="1" parent="bwYCHJLNzinmX0HIPUTe-18">
                    <mxGeometry width="30" height="30" as="geometry">
                        <mxRectangle width="30" height="30" as="alternateBounds"/>
                    </mxGeometry>
                </mxCell>
                <mxCell id="bwYCHJLNzinmX0HIPUTe-20" value="상품번호" style="shape=partialRectangle;connectable=0;fillColor=none;top=0;left=0;bottom=0;right=0;align=left;spacingLeft=6;fontStyle=5;overflow=hidden;whiteSpace=wrap;html=1;" vertex="1" parent="bwYCHJLNzinmX0HIPUTe-18">
                    <mxGeometry x="30" width="75" height="30" as="geometry">
                        <mxRectangle width="75" height="30" as="alternateBounds"/>
                    </mxGeometry>
                </mxCell>
                <mxCell id="80hxI5WshgiZlNaU7SqO-14" value="" style="shape=tableRow;horizontal=0;startSize=0;swimlaneHead=0;swimlaneBody=0;fillColor=none;collapsible=0;dropTarget=0;points=[[0,0.5],[1,0.5]];portConstraint=eastwest;top=0;left=0;right=0;bottom=1;" vertex="1" parent="bwYCHJLNzinmX0HIPUTe-17">
                    <mxGeometry y="60" width="105" height="30" as="geometry"/>
                </mxCell>
                <mxCell id="80hxI5WshgiZlNaU7SqO-15" value="FK" style="shape=partialRectangle;connectable=0;fillColor=none;top=0;left=0;bottom=0;right=0;fontStyle=1;overflow=hidden;whiteSpace=wrap;html=1;" vertex="1" parent="80hxI5WshgiZlNaU7SqO-14">
                    <mxGeometry width="30" height="30" as="geometry">
                        <mxRectangle width="30" height="30" as="alternateBounds"/>
                    </mxGeometry>
                </mxCell>
                <mxCell id="80hxI5WshgiZlNaU7SqO-16" value="업체코드" style="shape=partialRectangle;connectable=0;fillColor=none;top=0;left=0;bottom=0;right=0;align=left;spacingLeft=6;fontStyle=5;overflow=hidden;whiteSpace=wrap;html=1;" vertex="1" parent="80hxI5WshgiZlNaU7SqO-14">
                    <mxGeometry x="30" width="75" height="30" as="geometry">
                        <mxRectangle width="75" height="30" as="alternateBounds"/>
                    </mxGeometry>
                </mxCell>
                <mxCell id="bwYCHJLNzinmX0HIPUTe-21" value="" style="shape=tableRow;horizontal=0;startSize=0;swimlaneHead=0;swimlaneBody=0;fillColor=none;collapsible=0;dropTarget=0;points=[[0,0.5],[1,0.5]];portConstraint=eastwest;top=0;left=0;right=0;bottom=0;" vertex="1" parent="bwYCHJLNzinmX0HIPUTe-17">
                    <mxGeometry y="90" width="105" height="30" as="geometry"/>
                </mxCell>
                <mxCell id="bwYCHJLNzinmX0HIPUTe-22" value="" style="shape=partialRectangle;connectable=0;fillColor=none;top=0;left=0;bottom=0;right=0;editable=1;overflow=hidden;whiteSpace=wrap;html=1;" vertex="1" parent="bwYCHJLNzinmX0HIPUTe-21">
                    <mxGeometry width="30" height="30" as="geometry">
                        <mxRectangle width="30" height="30" as="alternateBounds"/>
                    </mxGeometry>
                </mxCell>
                <mxCell id="bwYCHJLNzinmX0HIPUTe-23" value="상품명" style="shape=partialRectangle;connectable=0;fillColor=none;top=0;left=0;bottom=0;right=0;align=left;spacingLeft=6;overflow=hidden;whiteSpace=wrap;html=1;" vertex="1" parent="bwYCHJLNzinmX0HIPUTe-21">
                    <mxGeometry x="30" width="75" height="30" as="geometry">
                        <mxRectangle width="75" height="30" as="alternateBounds"/>
                    </mxGeometry>
                </mxCell>
                <mxCell id="bwYCHJLNzinmX0HIPUTe-24" value="" style="shape=tableRow;horizontal=0;startSize=0;swimlaneHead=0;swimlaneBody=0;fillColor=none;collapsible=0;dropTarget=0;points=[[0,0.5],[1,0.5]];portConstraint=eastwest;top=0;left=0;right=0;bottom=0;" vertex="1" parent="bwYCHJLNzinmX0HIPUTe-17">
                    <mxGeometry y="120" width="105" height="30" as="geometry"/>
                </mxCell>
                <mxCell id="bwYCHJLNzinmX0HIPUTe-25" value="" style="shape=partialRectangle;connectable=0;fillColor=none;top=0;left=0;bottom=0;right=0;editable=1;overflow=hidden;whiteSpace=wrap;html=1;" vertex="1" parent="bwYCHJLNzinmX0HIPUTe-24">
                    <mxGeometry width="30" height="30" as="geometry">
                        <mxRectangle width="30" height="30" as="alternateBounds"/>
                    </mxGeometry>
                </mxCell>
                <mxCell id="bwYCHJLNzinmX0HIPUTe-26" value="재고량" style="shape=partialRectangle;connectable=0;fillColor=none;top=0;left=0;bottom=0;right=0;align=left;spacingLeft=6;overflow=hidden;whiteSpace=wrap;html=1;" vertex="1" parent="bwYCHJLNzinmX0HIPUTe-24">
                    <mxGeometry x="30" width="75" height="30" as="geometry">
                        <mxRectangle width="75" height="30" as="alternateBounds"/>
                    </mxGeometry>
                </mxCell>
                <mxCell id="bwYCHJLNzinmX0HIPUTe-27" value="" style="shape=tableRow;horizontal=0;startSize=0;swimlaneHead=0;swimlaneBody=0;fillColor=none;collapsible=0;dropTarget=0;points=[[0,0.5],[1,0.5]];portConstraint=eastwest;top=0;left=0;right=0;bottom=0;" vertex="1" parent="bwYCHJLNzinmX0HIPUTe-17">
                    <mxGeometry y="150" width="105" height="30" as="geometry"/>
                </mxCell>
                <mxCell id="bwYCHJLNzinmX0HIPUTe-28" value="" style="shape=partialRectangle;connectable=0;fillColor=none;top=0;left=0;bottom=0;right=0;editable=1;overflow=hidden;whiteSpace=wrap;html=1;" vertex="1" parent="bwYCHJLNzinmX0HIPUTe-27">
                    <mxGeometry width="30" height="30" as="geometry">
                        <mxRectangle width="30" height="30" as="alternateBounds"/>
                    </mxGeometry>
                </mxCell>
                <mxCell id="bwYCHJLNzinmX0HIPUTe-29" value="단가" style="shape=partialRectangle;connectable=0;fillColor=none;top=0;left=0;bottom=0;right=0;align=left;spacingLeft=6;overflow=hidden;whiteSpace=wrap;html=1;" vertex="1" parent="bwYCHJLNzinmX0HIPUTe-27">
                    <mxGeometry x="30" width="75" height="30" as="geometry">
                        <mxRectangle width="75" height="30" as="alternateBounds"/>
                    </mxGeometry>
                </mxCell>
                <mxCell id="msOobvDp_6hDNmn_tYKb-1" value="" style="shape=tableRow;horizontal=0;startSize=0;swimlaneHead=0;swimlaneBody=0;fillColor=none;collapsible=0;dropTarget=0;points=[[0,0.5],[1,0.5]];portConstraint=eastwest;top=0;left=0;right=0;bottom=0;" vertex="1" parent="bwYCHJLNzinmX0HIPUTe-17">
                    <mxGeometry y="180" width="105" height="30" as="geometry"/>
                </mxCell>
                <mxCell id="msOobvDp_6hDNmn_tYKb-2" value="" style="shape=partialRectangle;connectable=0;fillColor=none;top=0;left=0;bottom=0;right=0;editable=1;overflow=hidden;whiteSpace=wrap;html=1;" vertex="1" parent="msOobvDp_6hDNmn_tYKb-1">
                    <mxGeometry width="30" height="30" as="geometry">
                        <mxRectangle width="30" height="30" as="alternateBounds"/>
                    </mxGeometry>
                </mxCell>
                <mxCell id="msOobvDp_6hDNmn_tYKb-3" value="공급일자" style="shape=partialRectangle;connectable=0;fillColor=none;top=0;left=0;bottom=0;right=0;align=left;spacingLeft=6;overflow=hidden;whiteSpace=wrap;html=1;" vertex="1" parent="msOobvDp_6hDNmn_tYKb-1">
                    <mxGeometry x="30" width="75" height="30" as="geometry">
                        <mxRectangle width="75" height="30" as="alternateBounds"/>
                    </mxGeometry>
                </mxCell>
                <mxCell id="msOobvDp_6hDNmn_tYKb-4" value="" style="shape=tableRow;horizontal=0;startSize=0;swimlaneHead=0;swimlaneBody=0;fillColor=none;collapsible=0;dropTarget=0;points=[[0,0.5],[1,0.5]];portConstraint=eastwest;top=0;left=0;right=0;bottom=0;" vertex="1" parent="bwYCHJLNzinmX0HIPUTe-17">
                    <mxGeometry y="210" width="105" height="30" as="geometry"/>
                </mxCell>
                <mxCell id="msOobvDp_6hDNmn_tYKb-5" value="" style="shape=partialRectangle;connectable=0;fillColor=none;top=0;left=0;bottom=0;right=0;editable=1;overflow=hidden;whiteSpace=wrap;html=1;" vertex="1" parent="msOobvDp_6hDNmn_tYKb-4">
                    <mxGeometry width="30" height="30" as="geometry">
                        <mxRectangle width="30" height="30" as="alternateBounds"/>
                    </mxGeometry>
                </mxCell>
                <mxCell id="msOobvDp_6hDNmn_tYKb-6" value="공급량" style="shape=partialRectangle;connectable=0;fillColor=none;top=0;left=0;bottom=0;right=0;align=left;spacingLeft=6;overflow=hidden;whiteSpace=wrap;html=1;" vertex="1" parent="msOobvDp_6hDNmn_tYKb-4">
                    <mxGeometry x="30" width="75" height="30" as="geometry">
                        <mxRectangle width="75" height="30" as="alternateBounds"/>
                    </mxGeometry>
                </mxCell>
                <mxCell id="Rd36YkNfirJGDE4WmbeP-1" value="제조업체" style="shape=table;startSize=30;container=1;collapsible=1;childLayout=tableLayout;fixedRows=1;rowLines=0;fontStyle=1;align=center;resizeLast=1;html=1;" vertex="1" parent="1">
                    <mxGeometry x="630" y="405" width="105" height="180" as="geometry"/>
                </mxCell>
                <mxCell id="Rd36YkNfirJGDE4WmbeP-2" value="" style="shape=tableRow;horizontal=0;startSize=0;swimlaneHead=0;swimlaneBody=0;fillColor=none;collapsible=0;dropTarget=0;points=[[0,0.5],[1,0.5]];portConstraint=eastwest;top=0;left=0;right=0;bottom=1;" vertex="1" parent="Rd36YkNfirJGDE4WmbeP-1">
                    <mxGeometry y="30" width="105" height="30" as="geometry"/>
                </mxCell>
                <mxCell id="Rd36YkNfirJGDE4WmbeP-3" value="PK" style="shape=partialRectangle;connectable=0;fillColor=none;top=0;left=0;bottom=0;right=0;fontStyle=1;overflow=hidden;whiteSpace=wrap;html=1;" vertex="1" parent="Rd36YkNfirJGDE4WmbeP-2">
                    <mxGeometry width="30" height="30" as="geometry">
                        <mxRectangle width="30" height="30" as="alternateBounds"/>
                    </mxGeometry>
                </mxCell>
                <mxCell id="Rd36YkNfirJGDE4WmbeP-4" value="업체코드" style="shape=partialRectangle;connectable=0;fillColor=none;top=0;left=0;bottom=0;right=0;align=left;spacingLeft=6;fontStyle=5;overflow=hidden;whiteSpace=wrap;html=1;" vertex="1" parent="Rd36YkNfirJGDE4WmbeP-2">
                    <mxGeometry x="30" width="75" height="30" as="geometry">
                        <mxRectangle width="75" height="30" as="alternateBounds"/>
                    </mxGeometry>
                </mxCell>
                <mxCell id="Rd36YkNfirJGDE4WmbeP-5" value="" style="shape=tableRow;horizontal=0;startSize=0;swimlaneHead=0;swimlaneBody=0;fillColor=none;collapsible=0;dropTarget=0;points=[[0,0.5],[1,0.5]];portConstraint=eastwest;top=0;left=0;right=0;bottom=0;" vertex="1" parent="Rd36YkNfirJGDE4WmbeP-1">
                    <mxGeometry y="60" width="105" height="30" as="geometry"/>
                </mxCell>
                <mxCell id="Rd36YkNfirJGDE4WmbeP-6" value="" style="shape=partialRectangle;connectable=0;fillColor=none;top=0;left=0;bottom=0;right=0;editable=1;overflow=hidden;whiteSpace=wrap;html=1;" vertex="1" parent="Rd36YkNfirJGDE4WmbeP-5">
                    <mxGeometry width="30" height="30" as="geometry">
                        <mxRectangle width="30" height="30" as="alternateBounds"/>
                    </mxGeometry>
                </mxCell>
                <mxCell id="Rd36YkNfirJGDE4WmbeP-7" value="업체명" style="shape=partialRectangle;connectable=0;fillColor=none;top=0;left=0;bottom=0;right=0;align=left;spacingLeft=6;overflow=hidden;whiteSpace=wrap;html=1;" vertex="1" parent="Rd36YkNfirJGDE4WmbeP-5">
                    <mxGeometry x="30" width="75" height="30" as="geometry">
                        <mxRectangle width="75" height="30" as="alternateBounds"/>
                    </mxGeometry>
                </mxCell>
                <mxCell id="Rd36YkNfirJGDE4WmbeP-8" value="" style="shape=tableRow;horizontal=0;startSize=0;swimlaneHead=0;swimlaneBody=0;fillColor=none;collapsible=0;dropTarget=0;points=[[0,0.5],[1,0.5]];portConstraint=eastwest;top=0;left=0;right=0;bottom=0;" vertex="1" parent="Rd36YkNfirJGDE4WmbeP-1">
                    <mxGeometry y="90" width="105" height="30" as="geometry"/>
                </mxCell>
                <mxCell id="Rd36YkNfirJGDE4WmbeP-9" value="" style="shape=partialRectangle;connectable=0;fillColor=none;top=0;left=0;bottom=0;right=0;editable=1;overflow=hidden;whiteSpace=wrap;html=1;" vertex="1" parent="Rd36YkNfirJGDE4WmbeP-8">
                    <mxGeometry width="30" height="30" as="geometry">
                        <mxRectangle width="30" height="30" as="alternateBounds"/>
                    </mxGeometry>
                </mxCell>
                <mxCell id="Rd36YkNfirJGDE4WmbeP-10" value="전화번호" style="shape=partialRectangle;connectable=0;fillColor=none;top=0;left=0;bottom=0;right=0;align=left;spacingLeft=6;overflow=hidden;whiteSpace=wrap;html=1;" vertex="1" parent="Rd36YkNfirJGDE4WmbeP-8">
                    <mxGeometry x="30" width="75" height="30" as="geometry">
                        <mxRectangle width="75" height="30" as="alternateBounds"/>
                    </mxGeometry>
                </mxCell>
                <mxCell id="Rd36YkNfirJGDE4WmbeP-11" value="" style="shape=tableRow;horizontal=0;startSize=0;swimlaneHead=0;swimlaneBody=0;fillColor=none;collapsible=0;dropTarget=0;points=[[0,0.5],[1,0.5]];portConstraint=eastwest;top=0;left=0;right=0;bottom=0;" vertex="1" parent="Rd36YkNfirJGDE4WmbeP-1">
                    <mxGeometry y="120" width="105" height="30" as="geometry"/>
                </mxCell>
                <mxCell id="Rd36YkNfirJGDE4WmbeP-12" value="" style="shape=partialRectangle;connectable=0;fillColor=none;top=0;left=0;bottom=0;right=0;editable=1;overflow=hidden;whiteSpace=wrap;html=1;" vertex="1" parent="Rd36YkNfirJGDE4WmbeP-11">
                    <mxGeometry width="30" height="30" as="geometry">
                        <mxRectangle width="30" height="30" as="alternateBounds"/>
                    </mxGeometry>
                </mxCell>
                <mxCell id="Rd36YkNfirJGDE4WmbeP-13" value="위치" style="shape=partialRectangle;connectable=0;fillColor=none;top=0;left=0;bottom=0;right=0;align=left;spacingLeft=6;overflow=hidden;whiteSpace=wrap;html=1;" vertex="1" parent="Rd36YkNfirJGDE4WmbeP-11">
                    <mxGeometry x="30" width="75" height="30" as="geometry">
                        <mxRectangle width="75" height="30" as="alternateBounds"/>
                    </mxGeometry>
                </mxCell>
                <mxCell id="Rd36YkNfirJGDE4WmbeP-14" value="" style="shape=tableRow;horizontal=0;startSize=0;swimlaneHead=0;swimlaneBody=0;fillColor=none;collapsible=0;dropTarget=0;points=[[0,0.5],[1,0.5]];portConstraint=eastwest;top=0;left=0;right=0;bottom=0;" vertex="1" parent="Rd36YkNfirJGDE4WmbeP-1">
                    <mxGeometry y="150" width="105" height="30" as="geometry"/>
                </mxCell>
                <mxCell id="Rd36YkNfirJGDE4WmbeP-15" value="" style="shape=partialRectangle;connectable=0;fillColor=none;top=0;left=0;bottom=0;right=0;editable=1;overflow=hidden;whiteSpace=wrap;html=1;" vertex="1" parent="Rd36YkNfirJGDE4WmbeP-14">
                    <mxGeometry width="30" height="30" as="geometry">
                        <mxRectangle width="30" height="30" as="alternateBounds"/>
                    </mxGeometry>
                </mxCell>
                <mxCell id="Rd36YkNfirJGDE4WmbeP-16" value="담당자" style="shape=partialRectangle;connectable=0;fillColor=none;top=0;left=0;bottom=0;right=0;align=left;spacingLeft=6;overflow=hidden;whiteSpace=wrap;html=1;" vertex="1" parent="Rd36YkNfirJGDE4WmbeP-14">
                    <mxGeometry x="30" width="75" height="30" as="geometry">
                        <mxRectangle width="75" height="30" as="alternateBounds"/>
                    </mxGeometry>
                </mxCell>
                <mxCell id="Rd36YkNfirJGDE4WmbeP-17" value="게시글" style="shape=table;startSize=30;container=1;collapsible=1;childLayout=tableLayout;fixedRows=1;rowLines=0;fontStyle=1;align=center;resizeLast=1;html=1;" vertex="1" parent="1">
                    <mxGeometry x="257.5" y="405" width="110" height="170" as="geometry">
                        <mxRectangle x="225" y="270" width="80" height="30" as="alternateBounds"/>
                    </mxGeometry>
                </mxCell>
                <mxCell id="Rd36YkNfirJGDE4WmbeP-18" value="" style="shape=tableRow;horizontal=0;startSize=0;swimlaneHead=0;swimlaneBody=0;fillColor=none;collapsible=0;dropTarget=0;points=[[0,0.5],[1,0.5]];portConstraint=eastwest;top=0;left=0;right=0;bottom=1;" vertex="1" parent="Rd36YkNfirJGDE4WmbeP-17">
                    <mxGeometry y="30" width="110" height="30" as="geometry"/>
                </mxCell>
                <mxCell id="Rd36YkNfirJGDE4WmbeP-19" value="PK" style="shape=partialRectangle;connectable=0;fillColor=none;top=0;left=0;bottom=0;right=0;fontStyle=1;overflow=hidden;whiteSpace=wrap;html=1;" vertex="1" parent="Rd36YkNfirJGDE4WmbeP-18">
                    <mxGeometry width="30" height="30" as="geometry">
                        <mxRectangle width="30" height="30" as="alternateBounds"/>
                    </mxGeometry>
                </mxCell>
                <mxCell id="Rd36YkNfirJGDE4WmbeP-20" value="글번호" style="shape=partialRectangle;connectable=0;fillColor=none;top=0;left=0;bottom=0;right=0;align=left;spacingLeft=6;fontStyle=5;overflow=hidden;whiteSpace=wrap;html=1;" vertex="1" parent="Rd36YkNfirJGDE4WmbeP-18">
                    <mxGeometry x="30" width="80" height="30" as="geometry">
                        <mxRectangle width="80" height="30" as="alternateBounds"/>
                    </mxGeometry>
                </mxCell>
                <mxCell id="qswMJkTloYaEvaFUJE3v-1" value="" style="shape=tableRow;horizontal=0;startSize=0;swimlaneHead=0;swimlaneBody=0;fillColor=none;collapsible=0;dropTarget=0;points=[[0,0.5],[1,0.5]];portConstraint=eastwest;top=0;left=0;right=0;bottom=1;" vertex="1" parent="Rd36YkNfirJGDE4WmbeP-17">
                    <mxGeometry y="60" width="110" height="30" as="geometry"/>
                </mxCell>
                <mxCell id="qswMJkTloYaEvaFUJE3v-2" value="FK" style="shape=partialRectangle;connectable=0;fillColor=none;top=0;left=0;bottom=0;right=0;fontStyle=1;overflow=hidden;whiteSpace=wrap;html=1;" vertex="1" parent="qswMJkTloYaEvaFUJE3v-1">
                    <mxGeometry width="30" height="30" as="geometry">
                        <mxRectangle width="30" height="30" as="alternateBounds"/>
                    </mxGeometry>
                </mxCell>
                <mxCell id="qswMJkTloYaEvaFUJE3v-3" value="회원아이디" style="shape=partialRectangle;connectable=0;fillColor=none;top=0;left=0;bottom=0;right=0;align=left;spacingLeft=6;fontStyle=5;overflow=hidden;whiteSpace=wrap;html=1;" vertex="1" parent="qswMJkTloYaEvaFUJE3v-1">
                    <mxGeometry x="30" width="80" height="30" as="geometry">
                        <mxRectangle width="80" height="30" as="alternateBounds"/>
                    </mxGeometry>
                </mxCell>
                <mxCell id="Rd36YkNfirJGDE4WmbeP-21" value="" style="shape=tableRow;horizontal=0;startSize=0;swimlaneHead=0;swimlaneBody=0;fillColor=none;collapsible=0;dropTarget=0;points=[[0,0.5],[1,0.5]];portConstraint=eastwest;top=0;left=0;right=0;bottom=0;" vertex="1" parent="Rd36YkNfirJGDE4WmbeP-17">
                    <mxGeometry y="90" width="110" height="30" as="geometry"/>
                </mxCell>
                <mxCell id="Rd36YkNfirJGDE4WmbeP-22" value="" style="shape=partialRectangle;connectable=0;fillColor=none;top=0;left=0;bottom=0;right=0;editable=1;overflow=hidden;whiteSpace=wrap;html=1;" vertex="1" parent="Rd36YkNfirJGDE4WmbeP-21">
                    <mxGeometry width="30" height="30" as="geometry">
                        <mxRectangle width="30" height="30" as="alternateBounds"/>
                    </mxGeometry>
                </mxCell>
                <mxCell id="Rd36YkNfirJGDE4WmbeP-23" value="제목" style="shape=partialRectangle;connectable=0;fillColor=none;top=0;left=0;bottom=0;right=0;align=left;spacingLeft=6;overflow=hidden;whiteSpace=wrap;html=1;" vertex="1" parent="Rd36YkNfirJGDE4WmbeP-21">
                    <mxGeometry x="30" width="80" height="30" as="geometry">
                        <mxRectangle width="80" height="30" as="alternateBounds"/>
                    </mxGeometry>
                </mxCell>
                <mxCell id="Rd36YkNfirJGDE4WmbeP-24" value="" style="shape=tableRow;horizontal=0;startSize=0;swimlaneHead=0;swimlaneBody=0;fillColor=none;collapsible=0;dropTarget=0;points=[[0,0.5],[1,0.5]];portConstraint=eastwest;top=0;left=0;right=0;bottom=0;" vertex="1" parent="Rd36YkNfirJGDE4WmbeP-17">
                    <mxGeometry y="120" width="110" height="30" as="geometry"/>
                </mxCell>
                <mxCell id="Rd36YkNfirJGDE4WmbeP-25" value="" style="shape=partialRectangle;connectable=0;fillColor=none;top=0;left=0;bottom=0;right=0;editable=1;overflow=hidden;whiteSpace=wrap;html=1;" vertex="1" parent="Rd36YkNfirJGDE4WmbeP-24">
                    <mxGeometry width="30" height="30" as="geometry">
                        <mxRectangle width="30" height="30" as="alternateBounds"/>
                    </mxGeometry>
                </mxCell>
                <mxCell id="Rd36YkNfirJGDE4WmbeP-26" value="내용" style="shape=partialRectangle;connectable=0;fillColor=none;top=0;left=0;bottom=0;right=0;align=left;spacingLeft=6;overflow=hidden;whiteSpace=wrap;html=1;" vertex="1" parent="Rd36YkNfirJGDE4WmbeP-24">
                    <mxGeometry x="30" width="80" height="30" as="geometry">
                        <mxRectangle width="80" height="30" as="alternateBounds"/>
                    </mxGeometry>
                </mxCell>
                <mxCell id="Rd36YkNfirJGDE4WmbeP-27" value="" style="shape=tableRow;horizontal=0;startSize=0;swimlaneHead=0;swimlaneBody=0;fillColor=none;collapsible=0;dropTarget=0;points=[[0,0.5],[1,0.5]];portConstraint=eastwest;top=0;left=0;right=0;bottom=0;" vertex="1" parent="Rd36YkNfirJGDE4WmbeP-17">
                    <mxGeometry y="150" width="110" height="20" as="geometry"/>
                </mxCell>
                <mxCell id="Rd36YkNfirJGDE4WmbeP-28" value="" style="shape=partialRectangle;connectable=0;fillColor=none;top=0;left=0;bottom=0;right=0;editable=1;overflow=hidden;whiteSpace=wrap;html=1;" vertex="1" parent="Rd36YkNfirJGDE4WmbeP-27">
                    <mxGeometry width="30" height="20" as="geometry">
                        <mxRectangle width="30" height="20" as="alternateBounds"/>
                    </mxGeometry>
                </mxCell>
                <mxCell id="Rd36YkNfirJGDE4WmbeP-29" value="작성일" style="shape=partialRectangle;connectable=0;fillColor=none;top=0;left=0;bottom=0;right=0;align=left;spacingLeft=6;overflow=hidden;whiteSpace=wrap;html=1;" vertex="1" parent="Rd36YkNfirJGDE4WmbeP-27">
                    <mxGeometry x="30" width="80" height="20" as="geometry">
                        <mxRectangle width="80" height="20" as="alternateBounds"/>
                    </mxGeometry>
                </mxCell>
                <mxCell id="mMFct_kXnWAFL09kPGEp-1" value="주문" style="shape=table;startSize=30;container=1;collapsible=1;childLayout=tableLayout;fixedRows=1;rowLines=0;fontStyle=1;align=center;resizeLast=1;html=1;whiteSpace=wrap;" vertex="1" parent="1">
                    <mxGeometry x="425" y="140" width="135" height="240" as="geometry"/>
                </mxCell>
                <mxCell id="mMFct_kXnWAFL09kPGEp-2" value="" style="shape=tableRow;horizontal=0;startSize=0;swimlaneHead=0;swimlaneBody=0;fillColor=none;collapsible=0;dropTarget=0;points=[[0,0.5],[1,0.5]];portConstraint=eastwest;top=0;left=0;right=0;bottom=0;html=1;" vertex="1" parent="mMFct_kXnWAFL09kPGEp-1">
                    <mxGeometry y="30" width="135" height="30" as="geometry"/>
                </mxCell>
                <mxCell id="mMFct_kXnWAFL09kPGEp-3" value="pk" style="shape=partialRectangle;connectable=0;fillColor=none;top=0;left=0;bottom=0;right=0;fontStyle=1;overflow=hidden;html=1;whiteSpace=wrap;" vertex="1" parent="mMFct_kXnWAFL09kPGEp-2">
                    <mxGeometry width="60" height="30" as="geometry">
                        <mxRectangle width="60" height="30" as="alternateBounds"/>
                    </mxGeometry>
                </mxCell>
                <mxCell id="mMFct_kXnWAFL09kPGEp-4" value="주문번호" style="shape=partialRectangle;connectable=0;fillColor=none;top=0;left=0;bottom=0;right=0;align=left;spacingLeft=6;fontStyle=5;overflow=hidden;html=1;whiteSpace=wrap;" vertex="1" parent="mMFct_kXnWAFL09kPGEp-2">
                    <mxGeometry x="60" width="75" height="30" as="geometry">
                        <mxRectangle width="75" height="30" as="alternateBounds"/>
                    </mxGeometry>
                </mxCell>
                <mxCell id="mMFct_kXnWAFL09kPGEp-5" value="" style="shape=tableRow;horizontal=0;startSize=0;swimlaneHead=0;swimlaneBody=0;fillColor=none;collapsible=0;dropTarget=0;points=[[0,0.5],[1,0.5]];portConstraint=eastwest;top=0;left=0;right=0;bottom=1;html=1;" vertex="1" parent="mMFct_kXnWAFL09kPGEp-1">
                    <mxGeometry y="60" width="135" height="30" as="geometry"/>
                </mxCell>
                <mxCell id="mMFct_kXnWAFL09kPGEp-6" value="FK" style="shape=partialRectangle;connectable=0;fillColor=none;top=0;left=0;bottom=0;right=0;fontStyle=1;overflow=hidden;html=1;whiteSpace=wrap;" vertex="1" parent="mMFct_kXnWAFL09kPGEp-5">
                    <mxGeometry width="60" height="30" as="geometry">
                        <mxRectangle width="60" height="30" as="alternateBounds"/>
                    </mxGeometry>
                </mxCell>
                <mxCell id="mMFct_kXnWAFL09kPGEp-7" value="상품번호" style="shape=partialRectangle;connectable=0;fillColor=none;top=0;left=0;bottom=0;right=0;align=left;spacingLeft=6;fontStyle=5;overflow=hidden;html=1;whiteSpace=wrap;" vertex="1" parent="mMFct_kXnWAFL09kPGEp-5">
                    <mxGeometry x="60" width="75" height="30" as="geometry">
                        <mxRectangle width="75" height="30" as="alternateBounds"/>
                    </mxGeometry>
                </mxCell>
                <mxCell id="msOobvDp_6hDNmn_tYKb-7" value="" style="shape=tableRow;horizontal=0;startSize=0;swimlaneHead=0;swimlaneBody=0;fillColor=none;collapsible=0;dropTarget=0;points=[[0,0.5],[1,0.5]];portConstraint=eastwest;top=0;left=0;right=0;bottom=1;html=1;" vertex="1" parent="mMFct_kXnWAFL09kPGEp-1">
                    <mxGeometry y="90" width="135" height="30" as="geometry"/>
                </mxCell>
                <mxCell id="msOobvDp_6hDNmn_tYKb-8" value="FK" style="shape=partialRectangle;connectable=0;fillColor=none;top=0;left=0;bottom=0;right=0;fontStyle=1;overflow=hidden;html=1;whiteSpace=wrap;" vertex="1" parent="msOobvDp_6hDNmn_tYKb-7">
                    <mxGeometry width="60" height="30" as="geometry">
                        <mxRectangle width="60" height="30" as="alternateBounds"/>
                    </mxGeometry>
                </mxCell>
                <mxCell id="msOobvDp_6hDNmn_tYKb-9" value="회원아이디" style="shape=partialRectangle;connectable=0;fillColor=none;top=0;left=0;bottom=0;right=0;align=left;spacingLeft=6;fontStyle=5;overflow=hidden;html=1;whiteSpace=wrap;" vertex="1" parent="msOobvDp_6hDNmn_tYKb-7">
                    <mxGeometry x="60" width="75" height="30" as="geometry">
                        <mxRectangle width="75" height="30" as="alternateBounds"/>
                    </mxGeometry>
                </mxCell>
                <mxCell id="mMFct_kXnWAFL09kPGEp-8" value="" style="shape=tableRow;horizontal=0;startSize=0;swimlaneHead=0;swimlaneBody=0;fillColor=none;collapsible=0;dropTarget=0;points=[[0,0.5],[1,0.5]];portConstraint=eastwest;top=0;left=0;right=0;bottom=0;html=1;" vertex="1" parent="mMFct_kXnWAFL09kPGEp-1">
                    <mxGeometry y="120" width="135" height="30" as="geometry"/>
                </mxCell>
                <mxCell id="mMFct_kXnWAFL09kPGEp-9" value="" style="shape=partialRectangle;connectable=0;fillColor=none;top=0;left=0;bottom=0;right=0;editable=1;overflow=hidden;html=1;whiteSpace=wrap;" vertex="1" parent="mMFct_kXnWAFL09kPGEp-8">
                    <mxGeometry width="60" height="30" as="geometry">
                        <mxRectangle width="60" height="30" as="alternateBounds"/>
                    </mxGeometry>
                </mxCell>
                <mxCell id="mMFct_kXnWAFL09kPGEp-10" value="주문수량" style="shape=partialRectangle;connectable=0;fillColor=none;top=0;left=0;bottom=0;right=0;align=left;spacingLeft=6;overflow=hidden;html=1;whiteSpace=wrap;" vertex="1" parent="mMFct_kXnWAFL09kPGEp-8">
                    <mxGeometry x="60" width="75" height="30" as="geometry">
                        <mxRectangle width="75" height="30" as="alternateBounds"/>
                    </mxGeometry>
                </mxCell>
                <mxCell id="mMFct_kXnWAFL09kPGEp-11" value="" style="shape=tableRow;horizontal=0;startSize=0;swimlaneHead=0;swimlaneBody=0;fillColor=none;collapsible=0;dropTarget=0;points=[[0,0.5],[1,0.5]];portConstraint=eastwest;top=0;left=0;right=0;bottom=0;html=1;" vertex="1" parent="mMFct_kXnWAFL09kPGEp-1">
                    <mxGeometry y="150" width="135" height="30" as="geometry"/>
                </mxCell>
                <mxCell id="mMFct_kXnWAFL09kPGEp-12" value="" style="shape=partialRectangle;connectable=0;fillColor=none;top=0;left=0;bottom=0;right=0;editable=1;overflow=hidden;html=1;whiteSpace=wrap;" vertex="1" parent="mMFct_kXnWAFL09kPGEp-11">
                    <mxGeometry width="60" height="30" as="geometry">
                        <mxRectangle width="60" height="30" as="alternateBounds"/>
                    </mxGeometry>
                </mxCell>
                <mxCell id="mMFct_kXnWAFL09kPGEp-13" value="기본주소" style="shape=partialRectangle;connectable=0;fillColor=none;top=0;left=0;bottom=0;right=0;align=left;spacingLeft=6;overflow=hidden;html=1;whiteSpace=wrap;" vertex="1" parent="mMFct_kXnWAFL09kPGEp-11">
                    <mxGeometry x="60" width="75" height="30" as="geometry">
                        <mxRectangle width="75" height="30" as="alternateBounds"/>
                    </mxGeometry>
                </mxCell>
                <mxCell id="mMFct_kXnWAFL09kPGEp-14" value="" style="shape=tableRow;horizontal=0;startSize=0;swimlaneHead=0;swimlaneBody=0;fillColor=none;collapsible=0;dropTarget=0;points=[[0,0.5],[1,0.5]];portConstraint=eastwest;top=0;left=0;right=0;bottom=0;html=1;" vertex="1" parent="mMFct_kXnWAFL09kPGEp-1">
                    <mxGeometry y="180" width="135" height="30" as="geometry"/>
                </mxCell>
                <mxCell id="mMFct_kXnWAFL09kPGEp-15" value="" style="shape=partialRectangle;connectable=0;fillColor=none;top=0;left=0;bottom=0;right=0;editable=1;overflow=hidden;html=1;whiteSpace=wrap;" vertex="1" parent="mMFct_kXnWAFL09kPGEp-14">
                    <mxGeometry width="60" height="30" as="geometry">
                        <mxRectangle width="60" height="30" as="alternateBounds"/>
                    </mxGeometry>
                </mxCell>
                <mxCell id="mMFct_kXnWAFL09kPGEp-16" value="상세주소" style="shape=partialRectangle;connectable=0;fillColor=none;top=0;left=0;bottom=0;right=0;align=left;spacingLeft=6;overflow=hidden;html=1;whiteSpace=wrap;" vertex="1" parent="mMFct_kXnWAFL09kPGEp-14">
                    <mxGeometry x="60" width="75" height="30" as="geometry">
                        <mxRectangle width="75" height="30" as="alternateBounds"/>
                    </mxGeometry>
                </mxCell>
                <mxCell id="4f_wZyP8o6fMoSE0rd64-1" value="" style="shape=tableRow;horizontal=0;startSize=0;swimlaneHead=0;swimlaneBody=0;fillColor=none;collapsible=0;dropTarget=0;points=[[0,0.5],[1,0.5]];portConstraint=eastwest;top=0;left=0;right=0;bottom=0;html=1;" vertex="1" parent="mMFct_kXnWAFL09kPGEp-1">
                    <mxGeometry y="210" width="135" height="30" as="geometry"/>
                </mxCell>
                <mxCell id="4f_wZyP8o6fMoSE0rd64-2" value="" style="shape=partialRectangle;connectable=0;fillColor=none;top=0;left=0;bottom=0;right=0;editable=1;overflow=hidden;html=1;whiteSpace=wrap;" vertex="1" parent="4f_wZyP8o6fMoSE0rd64-1">
                    <mxGeometry width="60" height="30" as="geometry">
                        <mxRectangle width="60" height="30" as="alternateBounds"/>
                    </mxGeometry>
                </mxCell>
                <mxCell id="4f_wZyP8o6fMoSE0rd64-3" value="주문일자" style="shape=partialRectangle;connectable=0;fillColor=none;top=0;left=0;bottom=0;right=0;align=left;spacingLeft=6;overflow=hidden;html=1;whiteSpace=wrap;" vertex="1" parent="4f_wZyP8o6fMoSE0rd64-1">
                    <mxGeometry x="60" width="75" height="30" as="geometry">
                        <mxRectangle width="75" height="30" as="alternateBounds"/>
                    </mxGeometry>
                </mxCell>
                <mxCell id="6H56yG3tbn9SAoLLxzUD-1" value="상품색상" style="shape=table;startSize=30;container=1;collapsible=1;childLayout=tableLayout;fixedRows=1;rowLines=0;fontStyle=1;align=center;resizeLast=1;html=1;" vertex="1" parent="1">
                    <mxGeometry x="740" y="140" width="105" height="120" as="geometry"/>
                </mxCell>
                <mxCell id="6H56yG3tbn9SAoLLxzUD-2" value="" style="shape=tableRow;horizontal=0;startSize=0;swimlaneHead=0;swimlaneBody=0;fillColor=none;collapsible=0;dropTarget=0;points=[[0,0.5],[1,0.5]];portConstraint=eastwest;top=0;left=0;right=0;bottom=1;" vertex="1" parent="6H56yG3tbn9SAoLLxzUD-1">
                    <mxGeometry y="30" width="105" height="30" as="geometry"/>
                </mxCell>
                <mxCell id="6H56yG3tbn9SAoLLxzUD-3" value="PK" style="shape=partialRectangle;connectable=0;fillColor=none;top=0;left=0;bottom=0;right=0;fontStyle=1;overflow=hidden;whiteSpace=wrap;html=1;" vertex="1" parent="6H56yG3tbn9SAoLLxzUD-2">
                    <mxGeometry width="30" height="30" as="geometry">
                        <mxRectangle width="30" height="30" as="alternateBounds"/>
                    </mxGeometry>
                </mxCell>
                <mxCell id="6H56yG3tbn9SAoLLxzUD-4" value="NO" style="shape=partialRectangle;connectable=0;fillColor=none;top=0;left=0;bottom=0;right=0;align=left;spacingLeft=6;fontStyle=5;overflow=hidden;whiteSpace=wrap;html=1;" vertex="1" parent="6H56yG3tbn9SAoLLxzUD-2">
                    <mxGeometry x="30" width="75" height="30" as="geometry">
                        <mxRectangle width="75" height="30" as="alternateBounds"/>
                    </mxGeometry>
                </mxCell>
                <mxCell id="6H56yG3tbn9SAoLLxzUD-17" value="" style="shape=tableRow;horizontal=0;startSize=0;swimlaneHead=0;swimlaneBody=0;fillColor=none;collapsible=0;dropTarget=0;points=[[0,0.5],[1,0.5]];portConstraint=eastwest;top=0;left=0;right=0;bottom=1;" vertex="1" parent="6H56yG3tbn9SAoLLxzUD-1">
                    <mxGeometry y="60" width="105" height="30" as="geometry"/>
                </mxCell>
                <mxCell id="6H56yG3tbn9SAoLLxzUD-18" value="FK" style="shape=partialRectangle;connectable=0;fillColor=none;top=0;left=0;bottom=0;right=0;fontStyle=1;overflow=hidden;whiteSpace=wrap;html=1;" vertex="1" parent="6H56yG3tbn9SAoLLxzUD-17">
                    <mxGeometry width="30" height="30" as="geometry">
                        <mxRectangle width="30" height="30" as="alternateBounds"/>
                    </mxGeometry>
                </mxCell>
                <mxCell id="6H56yG3tbn9SAoLLxzUD-19" value="상품번호" style="shape=partialRectangle;connectable=0;fillColor=none;top=0;left=0;bottom=0;right=0;align=left;spacingLeft=6;fontStyle=5;overflow=hidden;whiteSpace=wrap;html=1;" vertex="1" parent="6H56yG3tbn9SAoLLxzUD-17">
                    <mxGeometry x="30" width="75" height="30" as="geometry">
                        <mxRectangle width="75" height="30" as="alternateBounds"/>
                    </mxGeometry>
                </mxCell>
                <mxCell id="6H56yG3tbn9SAoLLxzUD-5" value="" style="shape=tableRow;horizontal=0;startSize=0;swimlaneHead=0;swimlaneBody=0;fillColor=none;collapsible=0;dropTarget=0;points=[[0,0.5],[1,0.5]];portConstraint=eastwest;top=0;left=0;right=0;bottom=0;" vertex="1" parent="6H56yG3tbn9SAoLLxzUD-1">
                    <mxGeometry y="90" width="105" height="30" as="geometry"/>
                </mxCell>
                <mxCell id="6H56yG3tbn9SAoLLxzUD-6" value="" style="shape=partialRectangle;connectable=0;fillColor=none;top=0;left=0;bottom=0;right=0;editable=1;overflow=hidden;whiteSpace=wrap;html=1;" vertex="1" parent="6H56yG3tbn9SAoLLxzUD-5">
                    <mxGeometry width="30" height="30" as="geometry">
                        <mxRectangle width="30" height="30" as="alternateBounds"/>
                    </mxGeometry>
                </mxCell>
                <mxCell id="6H56yG3tbn9SAoLLxzUD-7" value="색상" style="shape=partialRectangle;connectable=0;fillColor=none;top=0;left=0;bottom=0;right=0;align=left;spacingLeft=6;overflow=hidden;whiteSpace=wrap;html=1;" vertex="1" parent="6H56yG3tbn9SAoLLxzUD-5">
                    <mxGeometry x="30" width="75" height="30" as="geometry">
                        <mxRectangle width="75" height="30" as="alternateBounds"/>
                    </mxGeometry>
                </mxCell>
            </root>
        </mxGraphModel>
    </diagram>
    <diagram id="0B8IaJouoQscmywRXnqV" name="학사ERD">
        <mxGraphModel dx="956" dy="543" grid="1" gridSize="10" guides="1" tooltips="1" connect="1" arrows="1" fold="1" page="1" pageScale="1" pageWidth="850" pageHeight="1100" math="0" shadow="0">
            <root>
                <mxCell id="0"/>
                <mxCell id="1" parent="0"/>
                <mxCell id="2AXnyQSMWtjGRUAhaiBN-1" value="학생" style="whiteSpace=wrap;html=1;align=center;" vertex="1" parent="1">
                    <mxGeometry x="200" y="150" width="100" height="40" as="geometry"/>
                </mxCell>
                <mxCell id="2AXnyQSMWtjGRUAhaiBN-2" value="학과" style="whiteSpace=wrap;html=1;align=center;" vertex="1" parent="1">
                    <mxGeometry x="520" y="150" width="100" height="40" as="geometry"/>
                </mxCell>
                <mxCell id="2AXnyQSMWtjGRUAhaiBN-3" value="교수" style="whiteSpace=wrap;html=1;align=center;" vertex="1" parent="1">
                    <mxGeometry x="520" y="460" width="100" height="40" as="geometry"/>
                </mxCell>
                <mxCell id="2AXnyQSMWtjGRUAhaiBN-4" value="과목" style="whiteSpace=wrap;html=1;align=center;" vertex="1" parent="1">
                    <mxGeometry x="200" y="460" width="100" height="40" as="geometry"/>
                </mxCell>
                <mxCell id="2AXnyQSMWtjGRUAhaiBN-5" value="학번" style="ellipse;whiteSpace=wrap;html=1;align=center;fontStyle=4;" vertex="1" parent="1">
                    <mxGeometry x="40" y="80" width="100" height="40" as="geometry"/>
                </mxCell>
                <mxCell id="2AXnyQSMWtjGRUAhaiBN-6" value="이름" style="ellipse;whiteSpace=wrap;html=1;align=center;" vertex="1" parent="1">
                    <mxGeometry x="40" y="130" width="100" height="40" as="geometry"/>
                </mxCell>
                <mxCell id="2AXnyQSMWtjGRUAhaiBN-7" value="키" style="ellipse;whiteSpace=wrap;html=1;align=center;" vertex="1" parent="1">
                    <mxGeometry x="40" y="180" width="100" height="40" as="geometry"/>
                </mxCell>
                <mxCell id="2AXnyQSMWtjGRUAhaiBN-8" value="학과코드" style="ellipse;whiteSpace=wrap;html=1;align=center;" vertex="1" parent="1">
                    <mxGeometry x="40" y="230" width="100" height="40" as="geometry"/>
                </mxCell>
                <mxCell id="2AXnyQSMWtjGRUAhaiBN-9" value="" style="endArrow=none;html=1;rounded=0;exitX=1;exitY=0.5;exitDx=0;exitDy=0;entryX=0;entryY=0.5;entryDx=0;entryDy=0;" edge="1" parent="1" source="2AXnyQSMWtjGRUAhaiBN-5" target="2AXnyQSMWtjGRUAhaiBN-1">
                    <mxGeometry relative="1" as="geometry">
                        <mxPoint x="139.9999999999984" y="150" as="sourcePoint"/>
                        <mxPoint x="200" y="220" as="targetPoint"/>
                    </mxGeometry>
                </mxCell>
                <mxCell id="2AXnyQSMWtjGRUAhaiBN-10" value="" style="endArrow=none;html=1;rounded=0;exitX=1;exitY=0.5;exitDx=0;exitDy=0;entryX=0;entryY=0.5;entryDx=0;entryDy=0;" edge="1" parent="1" source="2AXnyQSMWtjGRUAhaiBN-6" target="2AXnyQSMWtjGRUAhaiBN-1">
                    <mxGeometry relative="1" as="geometry">
                        <mxPoint x="150" y="140" as="sourcePoint"/>
                        <mxPoint x="180" y="190" as="targetPoint"/>
                    </mxGeometry>
                </mxCell>
                <mxCell id="2AXnyQSMWtjGRUAhaiBN-11" value="" style="endArrow=none;html=1;rounded=0;exitX=1;exitY=0.5;exitDx=0;exitDy=0;entryX=0;entryY=0.5;entryDx=0;entryDy=0;" edge="1" parent="1" source="2AXnyQSMWtjGRUAhaiBN-7" target="2AXnyQSMWtjGRUAhaiBN-1">
                    <mxGeometry relative="1" as="geometry">
                        <mxPoint x="370" y="250" as="sourcePoint"/>
                        <mxPoint x="530" y="250" as="targetPoint"/>
                    </mxGeometry>
                </mxCell>
                <mxCell id="2AXnyQSMWtjGRUAhaiBN-12" value="" style="endArrow=none;html=1;rounded=0;exitX=1;exitY=0.5;exitDx=0;exitDy=0;entryX=0;entryY=0.5;entryDx=0;entryDy=0;" edge="1" parent="1" source="2AXnyQSMWtjGRUAhaiBN-8" target="2AXnyQSMWtjGRUAhaiBN-1">
                    <mxGeometry relative="1" as="geometry">
                        <mxPoint x="370" y="250" as="sourcePoint"/>
                        <mxPoint x="530" y="250" as="targetPoint"/>
                    </mxGeometry>
                </mxCell>
                <mxCell id="2AXnyQSMWtjGRUAhaiBN-13" value="교수코드" style="ellipse;whiteSpace=wrap;html=1;align=center;fontStyle=4;" vertex="1" parent="1">
                    <mxGeometry x="670" y="410" width="100" height="40" as="geometry"/>
                </mxCell>
                <mxCell id="2AXnyQSMWtjGRUAhaiBN-14" value="교수명" style="ellipse;whiteSpace=wrap;html=1;align=center;" vertex="1" parent="1">
                    <mxGeometry x="670" y="460" width="100" height="40" as="geometry"/>
                </mxCell>
                <mxCell id="2AXnyQSMWtjGRUAhaiBN-15" value="학과코드" style="ellipse;whiteSpace=wrap;html=1;align=center;" vertex="1" parent="1">
                    <mxGeometry x="670" y="510" width="100" height="40" as="geometry"/>
                </mxCell>
                <mxCell id="2AXnyQSMWtjGRUAhaiBN-16" value="과목코드" style="ellipse;whiteSpace=wrap;html=1;align=center;fontStyle=4;" vertex="1" parent="1">
                    <mxGeometry x="40" y="360" width="100" height="40" as="geometry"/>
                </mxCell>
                <mxCell id="2AXnyQSMWtjGRUAhaiBN-18" value="과목명" style="ellipse;whiteSpace=wrap;html=1;align=center;" vertex="1" parent="1">
                    <mxGeometry x="40" y="460" width="100" height="40" as="geometry"/>
                </mxCell>
                <mxCell id="2AXnyQSMWtjGRUAhaiBN-19" value="시작일" style="ellipse;whiteSpace=wrap;html=1;align=center;" vertex="1" parent="1">
                    <mxGeometry x="40" y="510" width="100" height="40" as="geometry"/>
                </mxCell>
                <mxCell id="2AXnyQSMWtjGRUAhaiBN-20" value="종료일" style="ellipse;whiteSpace=wrap;html=1;align=center;" vertex="1" parent="1">
                    <mxGeometry x="40" y="565" width="100" height="40" as="geometry"/>
                </mxCell>
                <mxCell id="2AXnyQSMWtjGRUAhaiBN-21" value="" style="endArrow=none;html=1;rounded=0;entryX=0;entryY=0.5;entryDx=0;entryDy=0;exitX=1;exitY=0.5;exitDx=0;exitDy=0;" edge="1" parent="1" source="2AXnyQSMWtjGRUAhaiBN-16" target="2AXnyQSMWtjGRUAhaiBN-4">
                    <mxGeometry relative="1" as="geometry">
                        <mxPoint x="160" y="380" as="sourcePoint"/>
                        <mxPoint x="530" y="385" as="targetPoint"/>
                    </mxGeometry>
                </mxCell>
                <mxCell id="2AXnyQSMWtjGRUAhaiBN-22" value="" style="endArrow=none;html=1;rounded=0;exitX=1;exitY=0.5;exitDx=0;exitDy=0;entryX=0;entryY=0.5;entryDx=0;entryDy=0;" edge="1" parent="1" source="zhiC40_HvtIIBAUOlQj8-3" target="2AXnyQSMWtjGRUAhaiBN-4">
                    <mxGeometry relative="1" as="geometry">
                        <mxPoint x="139.9999999999984" y="430" as="sourcePoint"/>
                        <mxPoint x="530" y="385" as="targetPoint"/>
                    </mxGeometry>
                </mxCell>
                <mxCell id="2AXnyQSMWtjGRUAhaiBN-23" value="" style="endArrow=none;html=1;rounded=0;exitX=1;exitY=0.5;exitDx=0;exitDy=0;entryX=0;entryY=0.5;entryDx=0;entryDy=0;" edge="1" parent="1" source="2AXnyQSMWtjGRUAhaiBN-18" target="2AXnyQSMWtjGRUAhaiBN-4">
                    <mxGeometry relative="1" as="geometry">
                        <mxPoint x="370" y="385" as="sourcePoint"/>
                        <mxPoint x="530" y="385" as="targetPoint"/>
                    </mxGeometry>
                </mxCell>
                <mxCell id="2AXnyQSMWtjGRUAhaiBN-24" value="" style="endArrow=none;html=1;rounded=0;exitX=1;exitY=0.5;exitDx=0;exitDy=0;entryX=0;entryY=0.5;entryDx=0;entryDy=0;" edge="1" parent="1" source="2AXnyQSMWtjGRUAhaiBN-19" target="2AXnyQSMWtjGRUAhaiBN-4">
                    <mxGeometry relative="1" as="geometry">
                        <mxPoint x="370" y="385" as="sourcePoint"/>
                        <mxPoint x="530" y="385" as="targetPoint"/>
                    </mxGeometry>
                </mxCell>
                <mxCell id="2AXnyQSMWtjGRUAhaiBN-25" value="" style="endArrow=none;html=1;rounded=0;exitX=1;exitY=0.5;exitDx=0;exitDy=0;entryX=0;entryY=0.5;entryDx=0;entryDy=0;" edge="1" parent="1" source="2AXnyQSMWtjGRUAhaiBN-20" target="2AXnyQSMWtjGRUAhaiBN-4">
                    <mxGeometry relative="1" as="geometry">
                        <mxPoint x="370" y="385" as="sourcePoint"/>
                        <mxPoint x="530" y="385" as="targetPoint"/>
                    </mxGeometry>
                </mxCell>
                <mxCell id="2AXnyQSMWtjGRUAhaiBN-26" value="" style="endArrow=none;html=1;rounded=0;entryX=0;entryY=0.5;entryDx=0;entryDy=0;exitX=1;exitY=0.5;exitDx=0;exitDy=0;" edge="1" parent="1" source="2AXnyQSMWtjGRUAhaiBN-3" target="2AXnyQSMWtjGRUAhaiBN-13">
                    <mxGeometry relative="1" as="geometry">
                        <mxPoint x="370" y="385" as="sourcePoint"/>
                        <mxPoint x="530" y="385" as="targetPoint"/>
                    </mxGeometry>
                </mxCell>
                <mxCell id="2AXnyQSMWtjGRUAhaiBN-27" value="" style="endArrow=none;html=1;rounded=0;exitX=0;exitY=0.5;exitDx=0;exitDy=0;entryX=1;entryY=0.5;entryDx=0;entryDy=0;" edge="1" parent="1" source="2AXnyQSMWtjGRUAhaiBN-14" target="2AXnyQSMWtjGRUAhaiBN-3">
                    <mxGeometry relative="1" as="geometry">
                        <mxPoint x="370" y="385" as="sourcePoint"/>
                        <mxPoint x="530" y="385" as="targetPoint"/>
                    </mxGeometry>
                </mxCell>
                <mxCell id="2AXnyQSMWtjGRUAhaiBN-28" value="" style="endArrow=none;html=1;rounded=0;exitX=0.037;exitY=0.619;exitDx=0;exitDy=0;exitPerimeter=0;entryX=1;entryY=0.5;entryDx=0;entryDy=0;" edge="1" parent="1" source="2AXnyQSMWtjGRUAhaiBN-15" target="2AXnyQSMWtjGRUAhaiBN-3">
                    <mxGeometry relative="1" as="geometry">
                        <mxPoint x="370" y="385" as="sourcePoint"/>
                        <mxPoint x="530" y="385" as="targetPoint"/>
                    </mxGeometry>
                </mxCell>
                <mxCell id="zhiC40_HvtIIBAUOlQj8-1" value="학과코드" style="ellipse;whiteSpace=wrap;html=1;align=center;fontStyle=4;" vertex="1" parent="1">
                    <mxGeometry x="660" y="110" width="100" height="40" as="geometry"/>
                </mxCell>
                <mxCell id="zhiC40_HvtIIBAUOlQj8-2" value="학과명" style="ellipse;whiteSpace=wrap;html=1;align=center;" vertex="1" parent="1">
                    <mxGeometry x="660" y="180" width="100" height="40" as="geometry"/>
                </mxCell>
                <mxCell id="zhiC40_HvtIIBAUOlQj8-3" value="교수코드" style="ellipse;whiteSpace=wrap;html=1;align=center;fontStyle=4;" vertex="1" parent="1">
                    <mxGeometry x="40" y="410" width="100" height="40" as="geometry"/>
                </mxCell>
                <mxCell id="zhiC40_HvtIIBAUOlQj8-4" value="" style="endArrow=none;html=1;rounded=0;entryX=0;entryY=0.5;entryDx=0;entryDy=0;exitX=1;exitY=0.5;exitDx=0;exitDy=0;" edge="1" parent="1" source="2AXnyQSMWtjGRUAhaiBN-2" target="zhiC40_HvtIIBAUOlQj8-1">
                    <mxGeometry relative="1" as="geometry">
                        <mxPoint x="370" y="250" as="sourcePoint"/>
                        <mxPoint x="530" y="250" as="targetPoint"/>
                    </mxGeometry>
                </mxCell>
                <mxCell id="zhiC40_HvtIIBAUOlQj8-5" value="" style="endArrow=none;html=1;rounded=0;entryX=0;entryY=0.5;entryDx=0;entryDy=0;exitX=1;exitY=0.5;exitDx=0;exitDy=0;" edge="1" parent="1" source="2AXnyQSMWtjGRUAhaiBN-2" target="zhiC40_HvtIIBAUOlQj8-2">
                    <mxGeometry relative="1" as="geometry">
                        <mxPoint x="620" y="170" as="sourcePoint"/>
                        <mxPoint x="530" y="250" as="targetPoint"/>
                    </mxGeometry>
                </mxCell>
                <mxCell id="k8-E9R6MIjQwcbA58d2W-1" value="" style="endArrow=ERmany;html=1;rounded=0;exitX=0.5;exitY=0;exitDx=0;exitDy=0;entryX=0.5;entryY=1;entryDx=0;entryDy=0;startArrow=ERmany;startFill=0;endFill=0;" edge="1" parent="1" source="2AXnyQSMWtjGRUAhaiBN-4" target="2AXnyQSMWtjGRUAhaiBN-1">
                    <mxGeometry relative="1" as="geometry">
                        <mxPoint x="370" y="250" as="sourcePoint"/>
                        <mxPoint x="530" y="250" as="targetPoint"/>
                    </mxGeometry>
                </mxCell>
                <mxCell id="k8-E9R6MIjQwcbA58d2W-2" value="N" style="resizable=0;html=1;whiteSpace=wrap;align=left;verticalAlign=bottom;" connectable="0" vertex="1" parent="k8-E9R6MIjQwcbA58d2W-1">
                    <mxGeometry x="-1" relative="1" as="geometry">
                        <mxPoint x="3" y="-1" as="offset"/>
                    </mxGeometry>
                </mxCell>
                <mxCell id="k8-E9R6MIjQwcbA58d2W-3" value="M" style="resizable=0;html=1;whiteSpace=wrap;align=right;verticalAlign=bottom;" connectable="0" vertex="1" parent="k8-E9R6MIjQwcbA58d2W-1">
                    <mxGeometry x="1" relative="1" as="geometry">
                        <mxPoint x="-3" y="17" as="offset"/>
                    </mxGeometry>
                </mxCell>
                <mxCell id="6JVQ0627aPZNE6KZ-3NO-1" value="수강" style="shape=rhombus;perimeter=rhombusPerimeter;whiteSpace=wrap;html=1;align=center;" vertex="1" parent="1">
                    <mxGeometry x="190" y="290" width="120" height="60" as="geometry"/>
                </mxCell>
                <mxCell id="AT0DQW9WrRit2hryYEt5-1" value="" style="endArrow=ERmany;html=1;rounded=0;entryX=1;entryY=0.5;entryDx=0;entryDy=0;exitX=0;exitY=0.5;exitDx=0;exitDy=0;startArrow=none;startFill=0;endFill=0;" edge="1" parent="1" source="2AXnyQSMWtjGRUAhaiBN-2" target="2AXnyQSMWtjGRUAhaiBN-1">
                    <mxGeometry relative="1" as="geometry">
                        <mxPoint x="370" y="250" as="sourcePoint"/>
                        <mxPoint x="530" y="250" as="targetPoint"/>
                    </mxGeometry>
                </mxCell>
                <mxCell id="AT0DQW9WrRit2hryYEt5-2" value="1" style="resizable=0;html=1;whiteSpace=wrap;align=left;verticalAlign=bottom;" connectable="0" vertex="1" parent="AT0DQW9WrRit2hryYEt5-1">
                    <mxGeometry x="-1" relative="1" as="geometry">
                        <mxPoint x="-12" as="offset"/>
                    </mxGeometry>
                </mxCell>
                <mxCell id="AT0DQW9WrRit2hryYEt5-3" value="N" style="resizable=0;html=1;whiteSpace=wrap;align=right;verticalAlign=bottom;" connectable="0" vertex="1" parent="AT0DQW9WrRit2hryYEt5-1">
                    <mxGeometry x="1" relative="1" as="geometry">
                        <mxPoint x="14" as="offset"/>
                    </mxGeometry>
                </mxCell>
                <mxCell id="UCpPE9nYZdH1vgYoq8_g-1" value="" style="endArrow=none;html=1;rounded=0;entryX=0;entryY=0.5;entryDx=0;entryDy=0;exitX=1;exitY=0.5;exitDx=0;exitDy=0;endFill=0;startArrow=ERmany;startFill=0;" edge="1" parent="1" source="2AXnyQSMWtjGRUAhaiBN-4" target="2AXnyQSMWtjGRUAhaiBN-3">
                    <mxGeometry relative="1" as="geometry">
                        <mxPoint x="370" y="325" as="sourcePoint"/>
                        <mxPoint x="530" y="325" as="targetPoint"/>
                    </mxGeometry>
                </mxCell>
                <mxCell id="UCpPE9nYZdH1vgYoq8_g-2" value="N" style="resizable=0;html=1;whiteSpace=wrap;align=left;verticalAlign=bottom;" connectable="0" vertex="1" parent="UCpPE9nYZdH1vgYoq8_g-1">
                    <mxGeometry x="-1" relative="1" as="geometry"/>
                </mxCell>
                <mxCell id="UCpPE9nYZdH1vgYoq8_g-3" value="1" style="resizable=0;html=1;whiteSpace=wrap;align=right;verticalAlign=bottom;" connectable="0" vertex="1" parent="UCpPE9nYZdH1vgYoq8_g-1">
                    <mxGeometry x="1" relative="1" as="geometry"/>
                </mxCell>
                <mxCell id="8fNH9UmDaRHs3l5Bx98Z-2" value="수업" style="shape=rhombus;perimeter=rhombusPerimeter;whiteSpace=wrap;html=1;align=center;" vertex="1" parent="1">
                    <mxGeometry x="350" y="450" width="120" height="60" as="geometry"/>
                </mxCell>
                <mxCell id="UCpPE9nYZdH1vgYoq8_g-4" value="" style="endArrow=ERmany;html=1;rounded=0;entryX=0.5;entryY=0;entryDx=0;entryDy=0;exitX=0.5;exitY=1;exitDx=0;exitDy=0;endFill=0;" edge="1" parent="1" source="2AXnyQSMWtjGRUAhaiBN-2" target="2AXnyQSMWtjGRUAhaiBN-3">
                    <mxGeometry relative="1" as="geometry">
                        <mxPoint x="370" y="250" as="sourcePoint"/>
                        <mxPoint x="530" y="250" as="targetPoint"/>
                    </mxGeometry>
                </mxCell>
                <mxCell id="UCpPE9nYZdH1vgYoq8_g-5" value="N" style="resizable=0;html=1;whiteSpace=wrap;align=right;verticalAlign=bottom;" connectable="0" vertex="1" parent="UCpPE9nYZdH1vgYoq8_g-4">
                    <mxGeometry x="1" relative="1" as="geometry">
                        <mxPoint x="-4" y="-1" as="offset"/>
                    </mxGeometry>
                </mxCell>
                <mxCell id="OKz_2-YYqcUh56FFOdiW-1" value="수강일자" style="ellipse;shape=doubleEllipse;margin=3;whiteSpace=wrap;html=1;align=center;" vertex="1" parent="1">
                    <mxGeometry x="410" y="755" width="100" height="40" as="geometry"/>
                </mxCell>
                <mxCell id="OKz_2-YYqcUh56FFOdiW-2" value="시작일" style="ellipse;whiteSpace=wrap;html=1;align=center;" vertex="1" parent="1">
                    <mxGeometry x="340" y="820" width="100" height="40" as="geometry"/>
                </mxCell>
                <mxCell id="OKz_2-YYqcUh56FFOdiW-4" value="종료일" style="ellipse;whiteSpace=wrap;html=1;align=center;" vertex="1" parent="1">
                    <mxGeometry x="470" y="820" width="100" height="40" as="geometry"/>
                </mxCell>
                <mxCell id="OKz_2-YYqcUh56FFOdiW-5" value="" style="endArrow=none;html=1;rounded=0;exitX=0.5;exitY=0;exitDx=0;exitDy=0;entryX=0.5;entryY=1;entryDx=0;entryDy=0;" edge="1" parent="1" source="OKz_2-YYqcUh56FFOdiW-2" target="OKz_2-YYqcUh56FFOdiW-1">
                    <mxGeometry relative="1" as="geometry">
                        <mxPoint x="490" y="595" as="sourcePoint"/>
                        <mxPoint x="650" y="595" as="targetPoint"/>
                    </mxGeometry>
                </mxCell>
                <mxCell id="OKz_2-YYqcUh56FFOdiW-6" value="" style="endArrow=none;html=1;rounded=0;exitX=0.5;exitY=0;exitDx=0;exitDy=0;entryX=0.5;entryY=1;entryDx=0;entryDy=0;" edge="1" parent="1" source="OKz_2-YYqcUh56FFOdiW-4" target="OKz_2-YYqcUh56FFOdiW-1">
                    <mxGeometry relative="1" as="geometry">
                        <mxPoint x="500" y="795" as="sourcePoint"/>
                        <mxPoint x="650" y="595" as="targetPoint"/>
                    </mxGeometry>
                </mxCell>
                <mxCell id="Ts3JipCsQ7zEJz2z0QpR-1" value="과목코드" style="ellipse;whiteSpace=wrap;html=1;align=center;" vertex="1" parent="1">
                    <mxGeometry x="410" y="700" width="100" height="40" as="geometry"/>
                </mxCell>
                <mxCell id="Ts3JipCsQ7zEJz2z0QpR-2" value="학번" style="ellipse;whiteSpace=wrap;html=1;align=center;" vertex="1" parent="1">
                    <mxGeometry x="410" y="650" width="100" height="40" as="geometry"/>
                </mxCell>
                <mxCell id="Ts3JipCsQ7zEJz2z0QpR-3" value="" style="endArrow=none;html=1;rounded=0;exitX=1;exitY=0.5;exitDx=0;exitDy=0;entryX=0;entryY=0.5;entryDx=0;entryDy=0;" edge="1" parent="1" target="OKz_2-YYqcUh56FFOdiW-1">
                    <mxGeometry relative="1" as="geometry">
                        <mxPoint x="350" y="720" as="sourcePoint"/>
                        <mxPoint x="570" y="750" as="targetPoint"/>
                    </mxGeometry>
                </mxCell>
                <mxCell id="Ts3JipCsQ7zEJz2z0QpR-4" value="" style="endArrow=none;html=1;rounded=0;exitX=1;exitY=0.5;exitDx=0;exitDy=0;entryX=0;entryY=0.5;entryDx=0;entryDy=0;" edge="1" parent="1" target="Ts3JipCsQ7zEJz2z0QpR-1">
                    <mxGeometry relative="1" as="geometry">
                        <mxPoint x="350" y="720" as="sourcePoint"/>
                        <mxPoint x="570" y="750" as="targetPoint"/>
                    </mxGeometry>
                </mxCell>
                <mxCell id="Ts3JipCsQ7zEJz2z0QpR-5" value="" style="endArrow=none;html=1;rounded=0;exitX=1;exitY=0.5;exitDx=0;exitDy=0;entryX=0;entryY=0.5;entryDx=0;entryDy=0;" edge="1" parent="1" target="Ts3JipCsQ7zEJz2z0QpR-2">
                    <mxGeometry relative="1" as="geometry">
                        <mxPoint x="350" y="720" as="sourcePoint"/>
                        <mxPoint x="570" y="750" as="targetPoint"/>
                    </mxGeometry>
                </mxCell>
            </root>
        </mxGraphModel>
    </diagram>
    <diagram id="cJdoL_OU39N4QEk5MBbt" name="학생릴레이션">
        <mxGraphModel dx="749" dy="543" grid="1" gridSize="10" guides="1" tooltips="1" connect="1" arrows="1" fold="1" page="1" pageScale="1" pageWidth="850" pageHeight="1100" math="0" shadow="0">
            <root>
                <mxCell id="0"/>
                <mxCell id="1" parent="0"/>
                <mxCell id="5A2kpv9dPciJMoOGPQcv-1" value="학생" style="shape=table;startSize=30;container=1;collapsible=1;childLayout=tableLayout;fixedRows=1;rowLines=0;fontStyle=1;align=center;resizeLast=1;html=1;" vertex="1" parent="1">
                    <mxGeometry x="50" y="30" width="140" height="150" as="geometry"/>
                </mxCell>
                <mxCell id="5A2kpv9dPciJMoOGPQcv-2" value="" style="shape=tableRow;horizontal=0;startSize=0;swimlaneHead=0;swimlaneBody=0;fillColor=none;collapsible=0;dropTarget=0;points=[[0,0.5],[1,0.5]];portConstraint=eastwest;top=0;left=0;right=0;bottom=1;" vertex="1" parent="5A2kpv9dPciJMoOGPQcv-1">
                    <mxGeometry y="30" width="140" height="30" as="geometry"/>
                </mxCell>
                <mxCell id="5A2kpv9dPciJMoOGPQcv-3" value="PK" style="shape=partialRectangle;connectable=0;fillColor=none;top=0;left=0;bottom=0;right=0;fontStyle=1;overflow=hidden;whiteSpace=wrap;html=1;" vertex="1" parent="5A2kpv9dPciJMoOGPQcv-2">
                    <mxGeometry width="30" height="30" as="geometry">
                        <mxRectangle width="30" height="30" as="alternateBounds"/>
                    </mxGeometry>
                </mxCell>
                <mxCell id="5A2kpv9dPciJMoOGPQcv-4" value="학번" style="shape=partialRectangle;connectable=0;fillColor=none;top=0;left=0;bottom=0;right=0;align=left;spacingLeft=6;fontStyle=5;overflow=hidden;whiteSpace=wrap;html=1;" vertex="1" parent="5A2kpv9dPciJMoOGPQcv-2">
                    <mxGeometry x="30" width="110" height="30" as="geometry">
                        <mxRectangle width="110" height="30" as="alternateBounds"/>
                    </mxGeometry>
                </mxCell>
                <mxCell id="Mw356PHSGnKQCaCVzdw_-1" value="" style="shape=tableRow;horizontal=0;startSize=0;swimlaneHead=0;swimlaneBody=0;fillColor=none;collapsible=0;dropTarget=0;points=[[0,0.5],[1,0.5]];portConstraint=eastwest;top=0;left=0;right=0;bottom=1;" vertex="1" parent="5A2kpv9dPciJMoOGPQcv-1">
                    <mxGeometry y="60" width="140" height="30" as="geometry"/>
                </mxCell>
                <mxCell id="Mw356PHSGnKQCaCVzdw_-2" value="FK" style="shape=partialRectangle;connectable=0;fillColor=none;top=0;left=0;bottom=0;right=0;fontStyle=1;overflow=hidden;whiteSpace=wrap;html=1;" vertex="1" parent="Mw356PHSGnKQCaCVzdw_-1">
                    <mxGeometry width="30" height="30" as="geometry">
                        <mxRectangle width="30" height="30" as="alternateBounds"/>
                    </mxGeometry>
                </mxCell>
                <mxCell id="Mw356PHSGnKQCaCVzdw_-3" value="학과코드" style="shape=partialRectangle;connectable=0;fillColor=none;top=0;left=0;bottom=0;right=0;align=left;spacingLeft=6;fontStyle=5;overflow=hidden;whiteSpace=wrap;html=1;" vertex="1" parent="Mw356PHSGnKQCaCVzdw_-1">
                    <mxGeometry x="30" width="110" height="30" as="geometry">
                        <mxRectangle width="110" height="30" as="alternateBounds"/>
                    </mxGeometry>
                </mxCell>
                <mxCell id="5A2kpv9dPciJMoOGPQcv-5" value="" style="shape=tableRow;horizontal=0;startSize=0;swimlaneHead=0;swimlaneBody=0;fillColor=none;collapsible=0;dropTarget=0;points=[[0,0.5],[1,0.5]];portConstraint=eastwest;top=0;left=0;right=0;bottom=0;" vertex="1" parent="5A2kpv9dPciJMoOGPQcv-1">
                    <mxGeometry y="90" width="140" height="30" as="geometry"/>
                </mxCell>
                <mxCell id="5A2kpv9dPciJMoOGPQcv-6" value="" style="shape=partialRectangle;connectable=0;fillColor=none;top=0;left=0;bottom=0;right=0;editable=1;overflow=hidden;whiteSpace=wrap;html=1;" vertex="1" parent="5A2kpv9dPciJMoOGPQcv-5">
                    <mxGeometry width="30" height="30" as="geometry">
                        <mxRectangle width="30" height="30" as="alternateBounds"/>
                    </mxGeometry>
                </mxCell>
                <mxCell id="5A2kpv9dPciJMoOGPQcv-7" value="이름&lt;span style=&quot;white-space: pre;&quot;&gt;&#x9;&lt;/span&gt;" style="shape=partialRectangle;connectable=0;fillColor=none;top=0;left=0;bottom=0;right=0;align=left;spacingLeft=6;overflow=hidden;whiteSpace=wrap;html=1;" vertex="1" parent="5A2kpv9dPciJMoOGPQcv-5">
                    <mxGeometry x="30" width="110" height="30" as="geometry">
                        <mxRectangle width="110" height="30" as="alternateBounds"/>
                    </mxGeometry>
                </mxCell>
                <mxCell id="5A2kpv9dPciJMoOGPQcv-8" value="" style="shape=tableRow;horizontal=0;startSize=0;swimlaneHead=0;swimlaneBody=0;fillColor=none;collapsible=0;dropTarget=0;points=[[0,0.5],[1,0.5]];portConstraint=eastwest;top=0;left=0;right=0;bottom=0;" vertex="1" parent="5A2kpv9dPciJMoOGPQcv-1">
                    <mxGeometry y="120" width="140" height="30" as="geometry"/>
                </mxCell>
                <mxCell id="5A2kpv9dPciJMoOGPQcv-9" value="" style="shape=partialRectangle;connectable=0;fillColor=none;top=0;left=0;bottom=0;right=0;editable=1;overflow=hidden;whiteSpace=wrap;html=1;" vertex="1" parent="5A2kpv9dPciJMoOGPQcv-8">
                    <mxGeometry width="30" height="30" as="geometry">
                        <mxRectangle width="30" height="30" as="alternateBounds"/>
                    </mxGeometry>
                </mxCell>
                <mxCell id="5A2kpv9dPciJMoOGPQcv-10" value="키" style="shape=partialRectangle;connectable=0;fillColor=none;top=0;left=0;bottom=0;right=0;align=left;spacingLeft=6;overflow=hidden;whiteSpace=wrap;html=1;" vertex="1" parent="5A2kpv9dPciJMoOGPQcv-8">
                    <mxGeometry x="30" width="110" height="30" as="geometry">
                        <mxRectangle width="110" height="30" as="alternateBounds"/>
                    </mxGeometry>
                </mxCell>
                <mxCell id="UVxoJ74J1XNclcCLdZ3D-1" value="학과" style="shape=table;startSize=30;container=1;collapsible=1;childLayout=tableLayout;fixedRows=1;rowLines=0;fontStyle=1;align=center;resizeLast=1;html=1;" vertex="1" parent="1">
                    <mxGeometry x="620" y="60" width="110" height="90" as="geometry"/>
                </mxCell>
                <mxCell id="UVxoJ74J1XNclcCLdZ3D-2" value="" style="shape=tableRow;horizontal=0;startSize=0;swimlaneHead=0;swimlaneBody=0;fillColor=none;collapsible=0;dropTarget=0;points=[[0,0.5],[1,0.5]];portConstraint=eastwest;top=0;left=0;right=0;bottom=1;" vertex="1" parent="UVxoJ74J1XNclcCLdZ3D-1">
                    <mxGeometry y="30" width="110" height="30" as="geometry"/>
                </mxCell>
                <mxCell id="UVxoJ74J1XNclcCLdZ3D-3" value="PK" style="shape=partialRectangle;connectable=0;fillColor=none;top=0;left=0;bottom=0;right=0;fontStyle=1;overflow=hidden;whiteSpace=wrap;html=1;" vertex="1" parent="UVxoJ74J1XNclcCLdZ3D-2">
                    <mxGeometry width="30" height="30" as="geometry">
                        <mxRectangle width="30" height="30" as="alternateBounds"/>
                    </mxGeometry>
                </mxCell>
                <mxCell id="UVxoJ74J1XNclcCLdZ3D-4" value="학과코드" style="shape=partialRectangle;connectable=0;fillColor=none;top=0;left=0;bottom=0;right=0;align=left;spacingLeft=6;fontStyle=5;overflow=hidden;whiteSpace=wrap;html=1;" vertex="1" parent="UVxoJ74J1XNclcCLdZ3D-2">
                    <mxGeometry x="30" width="80" height="30" as="geometry">
                        <mxRectangle width="80" height="30" as="alternateBounds"/>
                    </mxGeometry>
                </mxCell>
                <mxCell id="UVxoJ74J1XNclcCLdZ3D-5" value="" style="shape=tableRow;horizontal=0;startSize=0;swimlaneHead=0;swimlaneBody=0;fillColor=none;collapsible=0;dropTarget=0;points=[[0,0.5],[1,0.5]];portConstraint=eastwest;top=0;left=0;right=0;bottom=0;" vertex="1" parent="UVxoJ74J1XNclcCLdZ3D-1">
                    <mxGeometry y="60" width="110" height="30" as="geometry"/>
                </mxCell>
                <mxCell id="UVxoJ74J1XNclcCLdZ3D-6" value="" style="shape=partialRectangle;connectable=0;fillColor=none;top=0;left=0;bottom=0;right=0;editable=1;overflow=hidden;whiteSpace=wrap;html=1;" vertex="1" parent="UVxoJ74J1XNclcCLdZ3D-5">
                    <mxGeometry width="30" height="30" as="geometry">
                        <mxRectangle width="30" height="30" as="alternateBounds"/>
                    </mxGeometry>
                </mxCell>
                <mxCell id="UVxoJ74J1XNclcCLdZ3D-7" value="학과명" style="shape=partialRectangle;connectable=0;fillColor=none;top=0;left=0;bottom=0;right=0;align=left;spacingLeft=6;overflow=hidden;whiteSpace=wrap;html=1;" vertex="1" parent="UVxoJ74J1XNclcCLdZ3D-5">
                    <mxGeometry x="30" width="80" height="30" as="geometry">
                        <mxRectangle width="80" height="30" as="alternateBounds"/>
                    </mxGeometry>
                </mxCell>
                <mxCell id="UVxoJ74J1XNclcCLdZ3D-27" value="교수" style="shape=table;startSize=30;container=1;collapsible=1;childLayout=tableLayout;fixedRows=1;rowLines=0;fontStyle=1;align=center;resizeLast=1;html=1;whiteSpace=wrap;" vertex="1" parent="1">
                    <mxGeometry x="590" y="360" width="140" height="120" as="geometry"/>
                </mxCell>
                <mxCell id="UVxoJ74J1XNclcCLdZ3D-28" value="" style="shape=tableRow;horizontal=0;startSize=0;swimlaneHead=0;swimlaneBody=0;fillColor=none;collapsible=0;dropTarget=0;points=[[0,0.5],[1,0.5]];portConstraint=eastwest;top=0;left=0;right=0;bottom=0;html=1;" vertex="1" parent="UVxoJ74J1XNclcCLdZ3D-27">
                    <mxGeometry y="30" width="140" height="30" as="geometry"/>
                </mxCell>
                <mxCell id="UVxoJ74J1XNclcCLdZ3D-29" value="PK" style="shape=partialRectangle;connectable=0;fillColor=none;top=0;left=0;bottom=0;right=0;fontStyle=1;overflow=hidden;html=1;whiteSpace=wrap;" vertex="1" parent="UVxoJ74J1XNclcCLdZ3D-28">
                    <mxGeometry width="60" height="30" as="geometry">
                        <mxRectangle width="60" height="30" as="alternateBounds"/>
                    </mxGeometry>
                </mxCell>
                <mxCell id="UVxoJ74J1XNclcCLdZ3D-30" value="교수코드" style="shape=partialRectangle;connectable=0;fillColor=none;top=0;left=0;bottom=0;right=0;align=left;spacingLeft=6;fontStyle=5;overflow=hidden;html=1;whiteSpace=wrap;" vertex="1" parent="UVxoJ74J1XNclcCLdZ3D-28">
                    <mxGeometry x="60" width="80" height="30" as="geometry">
                        <mxRectangle width="80" height="30" as="alternateBounds"/>
                    </mxGeometry>
                </mxCell>
                <mxCell id="UVxoJ74J1XNclcCLdZ3D-31" value="" style="shape=tableRow;horizontal=0;startSize=0;swimlaneHead=0;swimlaneBody=0;fillColor=none;collapsible=0;dropTarget=0;points=[[0,0.5],[1,0.5]];portConstraint=eastwest;top=0;left=0;right=0;bottom=1;html=1;" vertex="1" parent="UVxoJ74J1XNclcCLdZ3D-27">
                    <mxGeometry y="60" width="140" height="30" as="geometry"/>
                </mxCell>
                <mxCell id="UVxoJ74J1XNclcCLdZ3D-32" value="FK" style="shape=partialRectangle;connectable=0;fillColor=none;top=0;left=0;bottom=0;right=0;fontStyle=1;overflow=hidden;html=1;whiteSpace=wrap;" vertex="1" parent="UVxoJ74J1XNclcCLdZ3D-31">
                    <mxGeometry width="60" height="30" as="geometry">
                        <mxRectangle width="60" height="30" as="alternateBounds"/>
                    </mxGeometry>
                </mxCell>
                <mxCell id="UVxoJ74J1XNclcCLdZ3D-33" value="학과코드" style="shape=partialRectangle;connectable=0;fillColor=none;top=0;left=0;bottom=0;right=0;align=left;spacingLeft=6;fontStyle=5;overflow=hidden;html=1;whiteSpace=wrap;" vertex="1" parent="UVxoJ74J1XNclcCLdZ3D-31">
                    <mxGeometry x="60" width="80" height="30" as="geometry">
                        <mxRectangle width="80" height="30" as="alternateBounds"/>
                    </mxGeometry>
                </mxCell>
                <mxCell id="UVxoJ74J1XNclcCLdZ3D-34" value="" style="shape=tableRow;horizontal=0;startSize=0;swimlaneHead=0;swimlaneBody=0;fillColor=none;collapsible=0;dropTarget=0;points=[[0,0.5],[1,0.5]];portConstraint=eastwest;top=0;left=0;right=0;bottom=0;html=1;" vertex="1" parent="UVxoJ74J1XNclcCLdZ3D-27">
                    <mxGeometry y="90" width="140" height="30" as="geometry"/>
                </mxCell>
                <mxCell id="UVxoJ74J1XNclcCLdZ3D-35" value="" style="shape=partialRectangle;connectable=0;fillColor=none;top=0;left=0;bottom=0;right=0;editable=1;overflow=hidden;html=1;whiteSpace=wrap;" vertex="1" parent="UVxoJ74J1XNclcCLdZ3D-34">
                    <mxGeometry width="60" height="30" as="geometry">
                        <mxRectangle width="60" height="30" as="alternateBounds"/>
                    </mxGeometry>
                </mxCell>
                <mxCell id="UVxoJ74J1XNclcCLdZ3D-36" value="교수명" style="shape=partialRectangle;connectable=0;fillColor=none;top=0;left=0;bottom=0;right=0;align=left;spacingLeft=6;overflow=hidden;html=1;whiteSpace=wrap;" vertex="1" parent="UVxoJ74J1XNclcCLdZ3D-34">
                    <mxGeometry x="60" width="80" height="30" as="geometry">
                        <mxRectangle width="80" height="30" as="alternateBounds"/>
                    </mxGeometry>
                </mxCell>
                <mxCell id="UVxoJ74J1XNclcCLdZ3D-40" value="과목" style="shape=table;startSize=30;container=1;collapsible=1;childLayout=tableLayout;fixedRows=1;rowLines=0;fontStyle=1;align=center;resizeLast=1;html=1;whiteSpace=wrap;" vertex="1" parent="1">
                    <mxGeometry x="50" y="330" width="140" height="180" as="geometry"/>
                </mxCell>
                <mxCell id="UVxoJ74J1XNclcCLdZ3D-41" value="" style="shape=tableRow;horizontal=0;startSize=0;swimlaneHead=0;swimlaneBody=0;fillColor=none;collapsible=0;dropTarget=0;points=[[0,0.5],[1,0.5]];portConstraint=eastwest;top=0;left=0;right=0;bottom=0;html=1;" vertex="1" parent="UVxoJ74J1XNclcCLdZ3D-40">
                    <mxGeometry y="30" width="140" height="30" as="geometry"/>
                </mxCell>
                <mxCell id="UVxoJ74J1XNclcCLdZ3D-42" value="PK" style="shape=partialRectangle;connectable=0;fillColor=none;top=0;left=0;bottom=0;right=0;fontStyle=1;overflow=hidden;html=1;whiteSpace=wrap;" vertex="1" parent="UVxoJ74J1XNclcCLdZ3D-41">
                    <mxGeometry width="60" height="30" as="geometry">
                        <mxRectangle width="60" height="30" as="alternateBounds"/>
                    </mxGeometry>
                </mxCell>
                <mxCell id="UVxoJ74J1XNclcCLdZ3D-43" value="과목코드" style="shape=partialRectangle;connectable=0;fillColor=none;top=0;left=0;bottom=0;right=0;align=left;spacingLeft=6;fontStyle=5;overflow=hidden;html=1;whiteSpace=wrap;" vertex="1" parent="UVxoJ74J1XNclcCLdZ3D-41">
                    <mxGeometry x="60" width="80" height="30" as="geometry">
                        <mxRectangle width="80" height="30" as="alternateBounds"/>
                    </mxGeometry>
                </mxCell>
                <mxCell id="UVxoJ74J1XNclcCLdZ3D-44" value="" style="shape=tableRow;horizontal=0;startSize=0;swimlaneHead=0;swimlaneBody=0;fillColor=none;collapsible=0;dropTarget=0;points=[[0,0.5],[1,0.5]];portConstraint=eastwest;top=0;left=0;right=0;bottom=1;html=1;" vertex="1" parent="UVxoJ74J1XNclcCLdZ3D-40">
                    <mxGeometry y="60" width="140" height="30" as="geometry"/>
                </mxCell>
                <mxCell id="UVxoJ74J1XNclcCLdZ3D-45" value="FK" style="shape=partialRectangle;connectable=0;fillColor=none;top=0;left=0;bottom=0;right=0;fontStyle=1;overflow=hidden;html=1;whiteSpace=wrap;" vertex="1" parent="UVxoJ74J1XNclcCLdZ3D-44">
                    <mxGeometry width="60" height="30" as="geometry">
                        <mxRectangle width="60" height="30" as="alternateBounds"/>
                    </mxGeometry>
                </mxCell>
                <mxCell id="UVxoJ74J1XNclcCLdZ3D-46" value="교수코드" style="shape=partialRectangle;connectable=0;fillColor=none;top=0;left=0;bottom=0;right=0;align=left;spacingLeft=6;fontStyle=5;overflow=hidden;html=1;whiteSpace=wrap;" vertex="1" parent="UVxoJ74J1XNclcCLdZ3D-44">
                    <mxGeometry x="60" width="80" height="30" as="geometry">
                        <mxRectangle width="80" height="30" as="alternateBounds"/>
                    </mxGeometry>
                </mxCell>
                <mxCell id="UVxoJ74J1XNclcCLdZ3D-47" value="" style="shape=tableRow;horizontal=0;startSize=0;swimlaneHead=0;swimlaneBody=0;fillColor=none;collapsible=0;dropTarget=0;points=[[0,0.5],[1,0.5]];portConstraint=eastwest;top=0;left=0;right=0;bottom=0;html=1;" vertex="1" parent="UVxoJ74J1XNclcCLdZ3D-40">
                    <mxGeometry y="90" width="140" height="30" as="geometry"/>
                </mxCell>
                <mxCell id="UVxoJ74J1XNclcCLdZ3D-48" value="" style="shape=partialRectangle;connectable=0;fillColor=none;top=0;left=0;bottom=0;right=0;editable=1;overflow=hidden;html=1;whiteSpace=wrap;" vertex="1" parent="UVxoJ74J1XNclcCLdZ3D-47">
                    <mxGeometry width="60" height="30" as="geometry">
                        <mxRectangle width="60" height="30" as="alternateBounds"/>
                    </mxGeometry>
                </mxCell>
                <mxCell id="UVxoJ74J1XNclcCLdZ3D-49" value="과목명" style="shape=partialRectangle;connectable=0;fillColor=none;top=0;left=0;bottom=0;right=0;align=left;spacingLeft=6;overflow=hidden;html=1;whiteSpace=wrap;" vertex="1" parent="UVxoJ74J1XNclcCLdZ3D-47">
                    <mxGeometry x="60" width="80" height="30" as="geometry">
                        <mxRectangle width="80" height="30" as="alternateBounds"/>
                    </mxGeometry>
                </mxCell>
                <mxCell id="UVxoJ74J1XNclcCLdZ3D-50" value="" style="shape=tableRow;horizontal=0;startSize=0;swimlaneHead=0;swimlaneBody=0;fillColor=none;collapsible=0;dropTarget=0;points=[[0,0.5],[1,0.5]];portConstraint=eastwest;top=0;left=0;right=0;bottom=0;html=1;" vertex="1" parent="UVxoJ74J1XNclcCLdZ3D-40">
                    <mxGeometry y="120" width="140" height="30" as="geometry"/>
                </mxCell>
                <mxCell id="UVxoJ74J1XNclcCLdZ3D-51" value="" style="shape=partialRectangle;connectable=0;fillColor=none;top=0;left=0;bottom=0;right=0;editable=1;overflow=hidden;html=1;whiteSpace=wrap;" vertex="1" parent="UVxoJ74J1XNclcCLdZ3D-50">
                    <mxGeometry width="60" height="30" as="geometry">
                        <mxRectangle width="60" height="30" as="alternateBounds"/>
                    </mxGeometry>
                </mxCell>
                <mxCell id="UVxoJ74J1XNclcCLdZ3D-52" value="시작일" style="shape=partialRectangle;connectable=0;fillColor=none;top=0;left=0;bottom=0;right=0;align=left;spacingLeft=6;overflow=hidden;html=1;whiteSpace=wrap;" vertex="1" parent="UVxoJ74J1XNclcCLdZ3D-50">
                    <mxGeometry x="60" width="80" height="30" as="geometry">
                        <mxRectangle width="80" height="30" as="alternateBounds"/>
                    </mxGeometry>
                </mxCell>
                <mxCell id="UVxoJ74J1XNclcCLdZ3D-53" value="" style="shape=tableRow;horizontal=0;startSize=0;swimlaneHead=0;swimlaneBody=0;fillColor=none;collapsible=0;dropTarget=0;points=[[0,0.5],[1,0.5]];portConstraint=eastwest;top=0;left=0;right=0;bottom=0;html=1;" vertex="1" parent="UVxoJ74J1XNclcCLdZ3D-40">
                    <mxGeometry y="150" width="140" height="30" as="geometry"/>
                </mxCell>
                <mxCell id="UVxoJ74J1XNclcCLdZ3D-54" value="" style="shape=partialRectangle;connectable=0;fillColor=none;top=0;left=0;bottom=0;right=0;editable=1;overflow=hidden;html=1;whiteSpace=wrap;" vertex="1" parent="UVxoJ74J1XNclcCLdZ3D-53">
                    <mxGeometry width="60" height="30" as="geometry">
                        <mxRectangle width="60" height="30" as="alternateBounds"/>
                    </mxGeometry>
                </mxCell>
                <mxCell id="UVxoJ74J1XNclcCLdZ3D-55" value="종료일" style="shape=partialRectangle;connectable=0;fillColor=none;top=0;left=0;bottom=0;right=0;align=left;spacingLeft=6;overflow=hidden;html=1;whiteSpace=wrap;" vertex="1" parent="UVxoJ74J1XNclcCLdZ3D-53">
                    <mxGeometry x="60" width="80" height="30" as="geometry">
                        <mxRectangle width="80" height="30" as="alternateBounds"/>
                    </mxGeometry>
                </mxCell>
                <mxCell id="UVxoJ74J1XNclcCLdZ3D-56" value="수강" style="shape=table;startSize=30;container=1;collapsible=1;childLayout=tableLayout;fixedRows=1;rowLines=0;fontStyle=1;align=center;resizeLast=1;html=1;whiteSpace=wrap;" vertex="1" parent="1">
                    <mxGeometry x="320" y="170" width="135" height="180" as="geometry"/>
                </mxCell>
                <mxCell id="UVxoJ74J1XNclcCLdZ3D-57" value="" style="shape=tableRow;horizontal=0;startSize=0;swimlaneHead=0;swimlaneBody=0;fillColor=none;collapsible=0;dropTarget=0;points=[[0,0.5],[1,0.5]];portConstraint=eastwest;top=0;left=0;right=0;bottom=0;html=1;" vertex="1" parent="UVxoJ74J1XNclcCLdZ3D-56">
                    <mxGeometry y="30" width="135" height="30" as="geometry"/>
                </mxCell>
                <mxCell id="UVxoJ74J1XNclcCLdZ3D-58" value="PK" style="shape=partialRectangle;connectable=0;fillColor=none;top=0;left=0;bottom=0;right=0;fontStyle=1;overflow=hidden;html=1;whiteSpace=wrap;" vertex="1" parent="UVxoJ74J1XNclcCLdZ3D-57">
                    <mxGeometry width="60" height="30" as="geometry">
                        <mxRectangle width="60" height="30" as="alternateBounds"/>
                    </mxGeometry>
                </mxCell>
                <mxCell id="UVxoJ74J1XNclcCLdZ3D-59" value="수강번호" style="shape=partialRectangle;connectable=0;fillColor=none;top=0;left=0;bottom=0;right=0;align=left;spacingLeft=6;fontStyle=5;overflow=hidden;html=1;whiteSpace=wrap;" vertex="1" parent="UVxoJ74J1XNclcCLdZ3D-57">
                    <mxGeometry x="60" width="75" height="30" as="geometry">
                        <mxRectangle width="75" height="30" as="alternateBounds"/>
                    </mxGeometry>
                </mxCell>
                <mxCell id="UVxoJ74J1XNclcCLdZ3D-60" value="" style="shape=tableRow;horizontal=0;startSize=0;swimlaneHead=0;swimlaneBody=0;fillColor=none;collapsible=0;dropTarget=0;points=[[0,0.5],[1,0.5]];portConstraint=eastwest;top=0;left=0;right=0;bottom=1;html=1;" vertex="1" parent="UVxoJ74J1XNclcCLdZ3D-56">
                    <mxGeometry y="60" width="135" height="30" as="geometry"/>
                </mxCell>
                <mxCell id="UVxoJ74J1XNclcCLdZ3D-61" value="FK" style="shape=partialRectangle;connectable=0;fillColor=none;top=0;left=0;bottom=0;right=0;fontStyle=1;overflow=hidden;html=1;whiteSpace=wrap;" vertex="1" parent="UVxoJ74J1XNclcCLdZ3D-60">
                    <mxGeometry width="60" height="30" as="geometry">
                        <mxRectangle width="60" height="30" as="alternateBounds"/>
                    </mxGeometry>
                </mxCell>
                <mxCell id="UVxoJ74J1XNclcCLdZ3D-62" value="학생코드" style="shape=partialRectangle;connectable=0;fillColor=none;top=0;left=0;bottom=0;right=0;align=left;spacingLeft=6;fontStyle=5;overflow=hidden;html=1;whiteSpace=wrap;" vertex="1" parent="UVxoJ74J1XNclcCLdZ3D-60">
                    <mxGeometry x="60" width="75" height="30" as="geometry">
                        <mxRectangle width="75" height="30" as="alternateBounds"/>
                    </mxGeometry>
                </mxCell>
                <mxCell id="Mw356PHSGnKQCaCVzdw_-4" value="" style="shape=tableRow;horizontal=0;startSize=0;swimlaneHead=0;swimlaneBody=0;fillColor=none;collapsible=0;dropTarget=0;points=[[0,0.5],[1,0.5]];portConstraint=eastwest;top=0;left=0;right=0;bottom=1;html=1;" vertex="1" parent="UVxoJ74J1XNclcCLdZ3D-56">
                    <mxGeometry y="90" width="135" height="30" as="geometry"/>
                </mxCell>
                <mxCell id="Mw356PHSGnKQCaCVzdw_-5" value="FK" style="shape=partialRectangle;connectable=0;fillColor=none;top=0;left=0;bottom=0;right=0;fontStyle=1;overflow=hidden;html=1;whiteSpace=wrap;" vertex="1" parent="Mw356PHSGnKQCaCVzdw_-4">
                    <mxGeometry width="60" height="30" as="geometry">
                        <mxRectangle width="60" height="30" as="alternateBounds"/>
                    </mxGeometry>
                </mxCell>
                <mxCell id="Mw356PHSGnKQCaCVzdw_-6" value="과목코드" style="shape=partialRectangle;connectable=0;fillColor=none;top=0;left=0;bottom=0;right=0;align=left;spacingLeft=6;fontStyle=5;overflow=hidden;html=1;whiteSpace=wrap;" vertex="1" parent="Mw356PHSGnKQCaCVzdw_-4">
                    <mxGeometry x="60" width="75" height="30" as="geometry">
                        <mxRectangle width="75" height="30" as="alternateBounds"/>
                    </mxGeometry>
                </mxCell>
                <mxCell id="UVxoJ74J1XNclcCLdZ3D-63" value="" style="shape=tableRow;horizontal=0;startSize=0;swimlaneHead=0;swimlaneBody=0;fillColor=none;collapsible=0;dropTarget=0;points=[[0,0.5],[1,0.5]];portConstraint=eastwest;top=0;left=0;right=0;bottom=0;html=1;" vertex="1" parent="UVxoJ74J1XNclcCLdZ3D-56">
                    <mxGeometry y="120" width="135" height="30" as="geometry"/>
                </mxCell>
                <mxCell id="UVxoJ74J1XNclcCLdZ3D-64" value="" style="shape=partialRectangle;connectable=0;fillColor=none;top=0;left=0;bottom=0;right=0;editable=1;overflow=hidden;html=1;whiteSpace=wrap;" vertex="1" parent="UVxoJ74J1XNclcCLdZ3D-63">
                    <mxGeometry width="60" height="30" as="geometry">
                        <mxRectangle width="60" height="30" as="alternateBounds"/>
                    </mxGeometry>
                </mxCell>
                <mxCell id="UVxoJ74J1XNclcCLdZ3D-65" value="수강일자" style="shape=partialRectangle;connectable=0;fillColor=none;top=0;left=0;bottom=0;right=0;align=left;spacingLeft=6;overflow=hidden;html=1;whiteSpace=wrap;" vertex="1" parent="UVxoJ74J1XNclcCLdZ3D-63">
                    <mxGeometry x="60" width="75" height="30" as="geometry">
                        <mxRectangle width="75" height="30" as="alternateBounds"/>
                    </mxGeometry>
                </mxCell>
                <mxCell id="UVxoJ74J1XNclcCLdZ3D-66" value="" style="shape=tableRow;horizontal=0;startSize=0;swimlaneHead=0;swimlaneBody=0;fillColor=none;collapsible=0;dropTarget=0;points=[[0,0.5],[1,0.5]];portConstraint=eastwest;top=0;left=0;right=0;bottom=0;html=1;" vertex="1" parent="UVxoJ74J1XNclcCLdZ3D-56">
                    <mxGeometry y="150" width="135" height="30" as="geometry"/>
                </mxCell>
                <mxCell id="UVxoJ74J1XNclcCLdZ3D-67" value="" style="shape=partialRectangle;connectable=0;fillColor=none;top=0;left=0;bottom=0;right=0;editable=1;overflow=hidden;html=1;whiteSpace=wrap;" vertex="1" parent="UVxoJ74J1XNclcCLdZ3D-66">
                    <mxGeometry width="60" height="30" as="geometry">
                        <mxRectangle width="60" height="30" as="alternateBounds"/>
                    </mxGeometry>
                </mxCell>
                <mxCell id="UVxoJ74J1XNclcCLdZ3D-68" value="학점" style="shape=partialRectangle;connectable=0;fillColor=none;top=0;left=0;bottom=0;right=0;align=left;spacingLeft=6;overflow=hidden;html=1;whiteSpace=wrap;" vertex="1" parent="UVxoJ74J1XNclcCLdZ3D-66">
                    <mxGeometry x="60" width="75" height="30" as="geometry">
                        <mxRectangle width="75" height="30" as="alternateBounds"/>
                    </mxGeometry>
                </mxCell>
                <mxCell id="Mw356PHSGnKQCaCVzdw_-7" value="" style="edgeStyle=entityRelationEdgeStyle;fontSize=12;html=1;endArrow=ERoneToMany;exitX=0;exitY=0.5;exitDx=0;exitDy=0;entryX=1;entryY=0.5;entryDx=0;entryDy=0;" edge="1" parent="1" source="UVxoJ74J1XNclcCLdZ3D-2" target="Mw356PHSGnKQCaCVzdw_-1">
                    <mxGeometry width="100" height="100" relative="1" as="geometry">
                        <mxPoint x="370" y="300" as="sourcePoint"/>
                        <mxPoint x="470" y="200" as="targetPoint"/>
                    </mxGeometry>
                </mxCell>
                <mxCell id="Mw356PHSGnKQCaCVzdw_-8" value="" style="edgeStyle=entityRelationEdgeStyle;fontSize=12;html=1;endArrow=ERoneToMany;entryX=1;entryY=0.5;entryDx=0;entryDy=0;exitX=0;exitY=0.5;exitDx=0;exitDy=0;" edge="1" parent="1" source="UVxoJ74J1XNclcCLdZ3D-28" target="UVxoJ74J1XNclcCLdZ3D-44">
                    <mxGeometry width="100" height="100" relative="1" as="geometry">
                        <mxPoint x="570" y="390" as="sourcePoint"/>
                        <mxPoint x="240" y="270" as="targetPoint"/>
                        <Array as="points">
                            <mxPoint x="578" y="390"/>
                            <mxPoint x="530" y="280"/>
                        </Array>
                    </mxGeometry>
                </mxCell>
                <mxCell id="Mw356PHSGnKQCaCVzdw_-9" value="" style="edgeStyle=entityRelationEdgeStyle;fontSize=12;html=1;endArrow=ERoneToMany;entryX=1;entryY=0.5;entryDx=0;entryDy=0;exitX=1;exitY=0.5;exitDx=0;exitDy=0;" edge="1" parent="1" source="UVxoJ74J1XNclcCLdZ3D-2" target="UVxoJ74J1XNclcCLdZ3D-31">
                    <mxGeometry width="100" height="100" relative="1" as="geometry">
                        <mxPoint x="750" y="80" as="sourcePoint"/>
                        <mxPoint x="830" y="400" as="targetPoint"/>
                        <Array as="points">
                            <mxPoint x="750" y="320"/>
                            <mxPoint x="770" y="400"/>
                            <mxPoint x="820" y="360"/>
                        </Array>
                    </mxGeometry>
                </mxCell>
                <mxCell id="Mw356PHSGnKQCaCVzdw_-10" value="" style="edgeStyle=entityRelationEdgeStyle;fontSize=12;html=1;endArrow=ERoneToMany;exitX=1;exitY=0.5;exitDx=0;exitDy=0;entryX=0;entryY=0.5;entryDx=0;entryDy=0;" edge="1" parent="1" source="5A2kpv9dPciJMoOGPQcv-2" target="UVxoJ74J1XNclcCLdZ3D-60">
                    <mxGeometry width="100" height="100" relative="1" as="geometry">
                        <mxPoint x="140" y="280" as="sourcePoint"/>
                        <mxPoint x="310" y="239" as="targetPoint"/>
                    </mxGeometry>
                </mxCell>
                <mxCell id="Mw356PHSGnKQCaCVzdw_-11" value="" style="edgeStyle=entityRelationEdgeStyle;fontSize=12;html=1;endArrow=ERoneToMany;entryX=0;entryY=0.5;entryDx=0;entryDy=0;exitX=1;exitY=0.5;exitDx=0;exitDy=0;" edge="1" parent="1" source="UVxoJ74J1XNclcCLdZ3D-41" target="Mw356PHSGnKQCaCVzdw_-4">
                    <mxGeometry width="100" height="100" relative="1" as="geometry">
                        <mxPoint x="190" y="380" as="sourcePoint"/>
                        <mxPoint x="290" y="280" as="targetPoint"/>
                        <Array as="points">
                            <mxPoint x="110" y="320"/>
                            <mxPoint x="210" y="330"/>
                        </Array>
                    </mxGeometry>
                </mxCell>
            </root>
        </mxGraphModel>
    </diagram>
</mxfile>